<?xml version="1.0" encoding="UTF-8" standalone="no"?>
<!DOCTYPE svg PUBLIC "-//W3C//DTD SVG 1.1//EN" "http://www.w3.org/Graphics/SVG/1.1/DTD/svg11.dtd">
<svg width="100%" height="100%" viewBox="0 0 240 144" version="1.1" xmlns="http://www.w3.org/2000/svg" xmlns:xlink="http://www.w3.org/1999/xlink" xml:space="preserve" xmlns:serif="http://www.serif.com/" style="fill-rule:evenodd;clip-rule:evenodd;stroke-linejoin:round;stroke-miterlimit:2;">
    <g transform="matrix(1.93033,0,0,1.41005,-20.8768,-20.5477)">
        <rect x="10.815" y="14.572" width="124.331" height="102.124" style="fill:rgb(45,48,60);"/>
    </g>
    <g transform="matrix(0.700101,0,0,0.700101,120,72)">
        <g transform="matrix(1,0,0,1,-211.797,-56.2)">
            <g transform="matrix(1,0,0,1,109.905,103.61)">
                <g>
                    <path d="M-10.623,-25.14L-13.113,-18.8L-25.913,-18.8L-9.083,-58.8L9.737,-58.8L12.547,-18.8L-0.313,-18.8L-0.573,-25.14L-10.623,-25.14ZM-6.653,-35.31L-1.533,-35.31L-1.533,-46.51L-2.173,-46.51L-6.653,-35.31ZM-26.743,-21.87L-27.963,-19.06L-54.203,-21.87L-26.743,-21.87ZM-24.123,-28.08L-25.343,-25.26L-51.583,-28.08L-24.123,-28.08ZM-21.563,-34.22L-22.713,-31.41L-48.953,-34.22L-21.563,-34.22ZM-18.943,-40.37L-20.153,-37.55L-46.333,-40.37L-18.943,-40.37ZM-16.383,-46.51L-17.533,-43.7L-43.703,-46.51L-16.383,-46.51ZM-11.193,-58.8L-12.343,-56.05L-38.463,-58.8L-11.193,-58.8ZM-13.823,-52.66L-14.973,-49.9L-41.083,-52.66L-13.823,-52.66ZM-38.463,-58.8L-12.343,-56.05L-11.193,-58.8L-38.463,-58.8ZM28.737,-40.37L28.547,-39.09C28.46,-38.75 28.377,-38.28 28.297,-37.68L3.137,-40.37L28.737,-40.37ZM2.437,-34.22L27.847,-34.22C27.72,-33.24 27.657,-32.347 27.657,-31.54L2.437,-34.22ZM4.677,-46.51L30.277,-46.51L29.507,-43.89L4.677,-46.51ZM3.267,-28.08L27.717,-28.08C27.89,-26.887 28.04,-25.99 28.167,-25.39L3.267,-28.08ZM7.687,-52.66L32.897,-52.66C32.303,-51.547 31.877,-50.693 31.617,-50.1L7.687,-52.66ZM9.417,-21.87L29.637,-21.87C30.19,-20.89 30.83,-20.1 31.557,-19.5L9.417,-21.87ZM16.517,-58.8L38.977,-58.8C37.743,-58.033 36.783,-57.33 36.097,-56.69L16.517,-58.8ZM44.617,-17.84C39.237,-17.84 35.383,-18.887 33.057,-20.98C30.737,-23.067 29.577,-26.287 29.577,-30.64C29.577,-32.473 29.873,-35.183 30.467,-38.77C31.747,-46.11 33.957,-51.443 37.097,-54.77C40.23,-58.097 45.19,-59.76 51.977,-59.76C53.55,-59.76 55.35,-59.6 57.377,-59.28C59.403,-58.96 60.887,-58.567 61.827,-58.1L58.247,-48.3C55.727,-48.9 53.37,-49.2 51.177,-49.2C48.977,-49.2 47.407,-48.987 46.467,-48.56C45.527,-48.133 44.95,-47.28 44.737,-46L41.797,-29.23C43.33,-28.89 44.91,-28.72 46.537,-28.72C49.99,-28.72 53.147,-29.233 56.007,-30.26L54.977,-19.5C52.25,-18.393 48.797,-17.84 44.617,-17.84ZM72.457,-40.37L72.257,-39.09C72.177,-38.75 72.093,-38.28 72.007,-37.68L46.857,-40.37L72.457,-40.37ZM46.147,-34.22L71.557,-34.22C71.43,-33.24 71.367,-32.347 71.367,-31.54L46.147,-34.22ZM48.387,-46.51L73.987,-46.51L73.217,-43.89L48.387,-46.51ZM46.977,-28.08L71.427,-28.08C71.6,-26.887 71.75,-25.99 71.877,-25.39L46.977,-28.08ZM51.397,-52.66L76.617,-52.66C76.017,-51.547 75.59,-50.693 75.337,-50.1L51.397,-52.66ZM53.127,-21.87L73.347,-21.87C73.9,-20.89 74.54,-20.1 75.267,-19.5L53.127,-21.87ZM60.227,-58.8L82.697,-58.8C81.457,-58.033 80.497,-57.33 79.817,-56.69L60.227,-58.8ZM88.327,-17.84C82.947,-17.84 79.097,-18.887 76.777,-20.98C74.45,-23.067 73.287,-26.287 73.287,-30.64C73.287,-32.473 73.583,-35.183 74.177,-38.77C75.457,-46.11 77.667,-51.443 80.807,-54.77C83.94,-58.097 88.9,-59.76 95.687,-59.76C97.267,-59.76 99.07,-59.6 101.097,-59.28C103.123,-58.96 104.603,-58.567 105.537,-58.1L101.957,-48.3C99.437,-48.9 97.08,-49.2 94.887,-49.2C92.687,-49.2 91.117,-48.987 90.177,-48.56C89.243,-48.133 88.67,-47.28 88.457,-46L85.507,-29.23C87.047,-28.89 88.627,-28.72 90.247,-28.72C93.7,-28.72 96.857,-29.233 99.717,-30.26L98.697,-19.5C95.963,-18.393 92.507,-17.84 88.327,-17.84ZM128.897,-18.8L116.737,-18.8L123.777,-58.8L135.937,-58.8L128.897,-18.8ZM115.337,-21.87L114.817,-18.99L87.687,-21.87L115.337,-21.87ZM117.507,-34.22L116.997,-31.34L89.857,-34.22L117.507,-34.22ZM118.597,-40.37L118.087,-37.49L90.947,-40.37L118.597,-40.37ZM119.687,-46.51L119.177,-43.63L92.037,-46.51L119.687,-46.51ZM120.707,-52.66L120.257,-49.78L93.127,-52.66L120.707,-52.66ZM116.417,-28.08L115.907,-25.2L88.777,-28.08L116.417,-28.08ZM121.797,-58.8L121.287,-55.92L94.217,-58.8L121.797,-58.8ZM161.287,-28.78L166.337,-28.78C168.003,-28.78 169.243,-28.983 170.057,-29.39C170.863,-29.797 171.397,-30.727 171.657,-32.18L174.597,-48.82L169.477,-48.82C167.857,-48.82 166.64,-48.617 165.827,-48.21C165.02,-47.803 164.487,-46.873 164.227,-45.42L161.287,-28.78ZM171.587,-59.76C177.007,-59.76 180.87,-58.703 183.177,-56.59C185.477,-54.477 186.627,-51.223 186.627,-46.83C186.627,-42.437 185.933,-37.84 184.547,-33.04C183.16,-28.24 180.963,-24.507 177.957,-21.84C174.95,-19.173 170.557,-17.84 164.777,-17.84C158.99,-17.84 154.947,-18.897 152.647,-21.01C150.34,-23.123 149.187,-26.377 149.187,-30.77C149.187,-32.857 149.487,-35.62 150.087,-39.06C150.68,-42.493 151.47,-45.457 152.457,-47.95C153.437,-50.45 154.757,-52.617 156.417,-54.45C159.617,-57.99 164.673,-59.76 171.587,-59.76ZM148.417,-40.37L148.227,-39.09C148.14,-38.75 148.057,-38.28 147.977,-37.68L122.817,-40.37L148.417,-40.37ZM122.117,-34.22L147.527,-34.22C147.4,-33.24 147.337,-32.347 147.337,-31.54L122.117,-34.22ZM124.357,-46.51L149.957,-46.51L149.187,-43.89L124.357,-46.51ZM122.947,-28.08L147.397,-28.08C147.57,-26.887 147.72,-25.99 147.847,-25.39L122.947,-28.08ZM127.367,-52.66L152.577,-52.66C151.983,-51.547 151.557,-50.693 151.297,-50.1L127.367,-52.66ZM129.097,-21.87L149.317,-21.87C149.87,-20.89 150.51,-20.1 151.237,-19.5L129.097,-21.87ZM136.197,-58.8L158.657,-58.8C157.423,-58.033 156.463,-57.33 155.777,-56.69L136.197,-58.8ZM164.937,-65.9L177.027,-74.8C177.287,-74.973 177.563,-75.06 177.857,-75.06C178.157,-75.06 178.5,-74.823 178.887,-74.35L182.917,-69.62C183.303,-69.193 183.497,-68.84 183.497,-68.56C183.497,-68.28 183.443,-68.067 183.337,-67.92C183.23,-67.773 182.237,-66.887 180.357,-65.26C179.93,-64.88 179.377,-64.627 178.697,-64.5L167.557,-62.26L164.937,-65.9ZM170.057,-72.11L166.657,-69.62L143.617,-72.11L170.057,-72.11ZM162.947,-66.93L159.557,-64.43L136.517,-66.93L162.947,-66.93ZM223.497,-18.8L216.967,-33.01C216.793,-33.31 216.707,-33.727 216.707,-34.26C216.707,-34.793 216.75,-35.4 216.837,-36.08L216.327,-36.08L213.317,-18.8L201.157,-18.8L208.197,-58.8L219.657,-58.8L226.177,-44.59C226.31,-44.29 226.377,-43.873 226.377,-43.34C226.377,-42.807 226.333,-42.2 226.247,-41.52L226.757,-41.52L229.827,-58.8L241.987,-58.8L234.947,-18.8L223.497,-18.8ZM199.747,-21.87L199.237,-18.99L172.097,-21.87L199.747,-21.87ZM201.927,-34.22L201.417,-31.34L174.277,-34.22L201.927,-34.22ZM203.017,-40.37L202.497,-37.49L175.367,-40.37L203.017,-40.37ZM204.097,-46.51L203.587,-43.63L176.457,-46.51L204.097,-46.51ZM205.127,-52.66L204.677,-49.78L177.537,-52.66L205.127,-52.66ZM200.837,-28.08L200.327,-25.2L173.187,-28.08L200.837,-28.08ZM206.217,-58.8L205.697,-55.92L178.627,-58.8L206.217,-58.8Z" style="fill:rgb(228,156,73);fill-rule:nonzero;"/>
                </g>
            </g>
        </g>
    </g>
</svg>
