<?xml version="1.0" encoding="UTF-8" standalone="no"?>
<!DOCTYPE svg PUBLIC "-//W3C//DTD SVG 1.1//EN" "http://www.w3.org/Graphics/SVG/1.1/DTD/svg11.dtd">
<svg width="100%" height="100%" viewBox="0 0 240 144" version="1.1" xmlns="http://www.w3.org/2000/svg" xmlns:xlink="http://www.w3.org/1999/xlink" xml:space="preserve" xmlns:serif="http://www.serif.com/" style="fill-rule:evenodd;clip-rule:evenodd;stroke-linejoin:round;stroke-miterlimit:2;">
    <g transform="matrix(1.93033,0,0,1.41005,-20.8768,-20.5477)">
        <rect x="10.815" y="14.572" width="124.331" height="102.124" style="fill:rgb(45,48,60);"/>
    </g>
    <g transform="matrix(0.621476,0,0,0.621476,120,72)">
        <g transform="matrix(1,0,0,1,-228.827,-62.8)">
            <g transform="matrix(1,0,0,1,89.1025,105.677)">
                <g>
                    <path d="M-6.983,-53.26C-7.07,-53.387 -7.207,-53.513 -7.393,-53.64C-7.58,-53.767 -7.797,-53.87 -8.043,-53.95C-8.297,-54.037 -8.537,-54.067 -8.763,-54.04C-8.997,-54.02 -9.173,-53.927 -9.293,-53.76C-9.42,-53.553 -9.64,-52.773 -9.953,-51.42C-10.267,-50.067 -10.59,-48.39 -10.923,-46.39C-11.257,-44.39 -11.547,-42.16 -11.793,-39.7C-12.047,-37.24 -12.173,-34.803 -12.173,-32.39C-12.173,-30.637 -12.11,-28.813 -11.983,-26.92C-11.857,-25.027 -11.7,-23.287 -11.513,-21.7C-11.327,-20.12 -11.1,-18.817 -10.833,-17.79C-10.56,-16.77 -10.277,-16.26 -9.983,-16.26C-9.69,-16.22 -9.293,-16.533 -8.793,-17.2C-8.293,-17.867 -7.817,-18.627 -7.363,-19.48C-6.903,-20.333 -6.477,-21.167 -6.083,-21.98C-5.683,-22.793 -5.42,-23.347 -5.293,-23.64C-5.127,-24.1 -4.9,-24.61 -4.613,-25.17C-4.32,-25.73 -4.027,-26.25 -3.733,-26.73C-3.44,-27.21 -3.15,-27.607 -2.863,-27.92C-2.57,-28.233 -2.32,-28.39 -2.113,-28.39C-1.86,-28.39 -1.64,-28.14 -1.453,-27.64C-1.267,-27.14 -1.12,-26.547 -1.013,-25.86C-0.913,-25.173 -0.84,-24.463 -0.793,-23.73C-0.753,-23.003 -0.733,-22.41 -0.733,-21.95C-0.733,-21.117 -0.89,-20.077 -1.203,-18.83C-1.517,-17.577 -1.913,-16.367 -2.393,-15.2C-2.873,-14.033 -3.393,-13.033 -3.953,-12.2C-4.513,-11.367 -5.043,-10.97 -5.543,-11.01C-6.043,-11.05 -6.847,-11.343 -7.953,-11.89C-9.06,-12.43 -10.197,-13.053 -11.363,-13.76C-12.53,-14.473 -13.59,-15.183 -14.543,-15.89C-15.503,-16.597 -16.067,-17.16 -16.233,-17.58C-16.44,-17.953 -16.743,-18.857 -17.143,-20.29C-17.537,-21.73 -17.943,-23.47 -18.363,-25.51C-18.777,-27.557 -19.14,-29.807 -19.453,-32.26C-19.767,-34.72 -19.923,-37.2 -19.923,-39.7C-19.923,-42.2 -19.903,-44.67 -19.863,-47.11C-19.817,-49.543 -19.723,-51.72 -19.583,-53.64C-19.437,-55.553 -19.197,-57.103 -18.863,-58.29C-18.53,-59.483 -18.07,-60.12 -17.483,-60.2C-16.317,-60.327 -15.047,-60.253 -13.673,-59.98C-12.3,-59.713 -10.923,-59.307 -9.543,-58.76C-8.17,-58.22 -6.85,-57.607 -5.583,-56.92C-4.31,-56.233 -3.173,-55.523 -2.173,-54.79C-1.173,-54.063 -0.37,-53.367 0.237,-52.7C0.837,-52.033 1.16,-51.47 1.207,-51.01C1.247,-50.303 1.163,-49.513 0.957,-48.64C0.743,-47.767 0.493,-46.923 0.207,-46.11C-0.087,-45.297 -0.39,-44.567 -0.703,-43.92C-1.017,-43.273 -1.257,-42.827 -1.423,-42.58C-1.63,-42.287 -1.88,-41.973 -2.173,-41.64C-2.467,-41.307 -2.77,-41.013 -3.083,-40.76C-3.39,-40.513 -3.7,-40.337 -4.013,-40.23C-4.327,-40.13 -4.61,-40.183 -4.863,-40.39C-5.03,-40.517 -5.187,-40.913 -5.333,-41.58C-5.473,-42.247 -5.617,-43.037 -5.763,-43.95C-5.91,-44.87 -6.047,-45.86 -6.173,-46.92C-6.3,-47.98 -6.413,-48.97 -6.513,-49.89C-6.62,-50.803 -6.713,-51.573 -6.793,-52.2C-6.88,-52.827 -6.943,-53.18 -6.983,-53.26ZM18.957,-51.08C18.243,-51.033 17.543,-51.02 16.857,-51.04C16.17,-51.067 15.537,-51.08 14.957,-51.08C14.29,-51.08 13.663,-51.1 13.077,-51.14C13.163,-48.933 13.193,-46.36 13.167,-43.42C13.147,-40.48 13.107,-37.47 13.047,-34.39C12.987,-31.303 12.903,-28.293 12.797,-25.36C12.69,-22.42 12.577,-19.827 12.457,-17.58C14.037,-17.62 15.43,-17.62 16.637,-17.58C17.85,-17.533 18.497,-17.47 18.577,-17.39C18.663,-17.263 18.663,-16.857 18.577,-16.17C18.497,-15.483 18.373,-14.733 18.207,-13.92C18.04,-13.107 17.873,-12.357 17.707,-11.67C17.54,-10.983 17.413,-10.557 17.327,-10.39C16.16,-10.343 15.087,-10.333 14.107,-10.36C13.127,-10.38 12.283,-10.43 11.577,-10.51C10.743,-10.55 9.993,-10.613 9.327,-10.7C8.66,-10.827 7.953,-10.973 7.207,-11.14C6.58,-11.307 5.86,-11.513 5.047,-11.76C4.233,-12.013 3.41,-12.327 2.577,-12.7C2.41,-12.787 2.213,-13.017 1.987,-13.39C1.753,-13.763 1.523,-14.17 1.297,-14.61C1.07,-15.043 0.883,-15.47 0.737,-15.89C0.59,-16.303 0.517,-16.593 0.517,-16.76C0.517,-16.807 0.703,-16.86 1.077,-16.92C1.45,-16.98 1.97,-17.043 2.637,-17.11C3.303,-17.17 4.053,-17.23 4.887,-17.29C5.72,-17.357 6.617,-17.41 7.577,-17.45C7.497,-18.657 7.383,-20.25 7.237,-22.23C7.09,-24.21 6.943,-26.357 6.797,-28.67C6.65,-30.983 6.503,-33.357 6.357,-35.79C6.21,-38.23 6.097,-40.503 6.017,-42.61C5.93,-44.71 5.887,-46.553 5.887,-48.14C5.887,-49.72 5.95,-50.823 6.077,-51.45C6.117,-51.537 6.137,-51.61 6.137,-51.67C6.137,-51.73 6.16,-51.803 6.207,-51.89L4.457,-52.33C3.957,-52.45 3.413,-52.593 2.827,-52.76C2.247,-52.927 1.663,-53.117 1.077,-53.33C0.91,-53.41 0.69,-53.637 0.417,-54.01C0.15,-54.39 -0.12,-54.807 -0.393,-55.26C-0.66,-55.72 -0.89,-56.147 -1.083,-56.54C-1.27,-56.94 -1.363,-57.223 -1.363,-57.39C-1.363,-57.47 -0.83,-57.563 0.237,-57.67C1.297,-57.777 2.62,-57.87 4.207,-57.95C5.787,-58.037 7.503,-58.1 9.357,-58.14C11.21,-58.18 12.94,-58.2 14.547,-58.2C16.153,-58.2 17.507,-58.19 18.607,-58.17C19.713,-58.15 20.307,-58.097 20.387,-58.01C20.513,-57.89 20.523,-57.483 20.417,-56.79C20.317,-56.103 20.173,-55.353 19.987,-54.54C19.8,-53.733 19.61,-52.983 19.417,-52.29C19.23,-51.603 19.077,-51.2 18.957,-51.08ZM40.137,-48.01C39.97,-47.803 38.95,-47.783 37.077,-47.95C35.203,-48.117 32.247,-48.387 28.207,-48.76C28.207,-47.387 28.217,-45.7 28.237,-43.7C28.257,-41.7 28.247,-39.553 28.207,-37.26C31.327,-36.973 33.763,-36.703 35.517,-36.45C37.263,-36.203 38.18,-36.037 38.267,-35.95C38.433,-35.783 38.497,-35.44 38.457,-34.92C38.41,-34.4 38.303,-33.827 38.137,-33.2C37.97,-32.573 37.763,-31.98 37.517,-31.42C37.263,-30.86 37.013,-30.497 36.767,-30.33C36.56,-30.243 35.737,-30.127 34.297,-29.98C32.857,-29.833 30.827,-29.7 28.207,-29.58C28.207,-27.787 28.193,-26.013 28.167,-24.26C28.147,-22.513 28.117,-20.91 28.077,-19.45C32.117,-19.41 35.063,-19.337 36.917,-19.23C38.777,-19.13 39.79,-18.997 39.957,-18.83C40.123,-18.617 40.133,-18.22 39.987,-17.64C39.84,-17.053 39.61,-16.437 39.297,-15.79C38.983,-15.15 38.65,-14.517 38.297,-13.89C37.943,-13.263 37.663,-12.827 37.457,-12.58C37.37,-12.493 36.87,-12.46 35.957,-12.48C35.037,-12.5 34.013,-12.553 32.887,-12.64C31.767,-12.72 30.683,-12.813 29.637,-12.92C28.597,-13.027 27.91,-13.12 27.577,-13.2C26.95,-13.407 26.283,-13.75 25.577,-14.23C24.87,-14.71 24.307,-15.327 23.887,-16.08C23.807,-16.287 23.673,-16.983 23.487,-18.17C23.3,-19.357 23.1,-20.867 22.887,-22.7C22.68,-24.533 22.473,-26.597 22.267,-28.89C22.06,-31.183 21.85,-33.517 21.637,-35.89C21.43,-38.263 21.243,-40.597 21.077,-42.89C20.91,-45.183 20.773,-47.257 20.667,-49.11C20.567,-50.963 20.517,-52.503 20.517,-53.73C20.517,-54.963 20.58,-55.703 20.707,-55.95C20.827,-56.283 21.41,-56.533 22.457,-56.7C23.497,-56.867 24.747,-56.98 26.207,-57.04C27.66,-57.107 29.23,-57.12 30.917,-57.08C32.61,-57.033 34.183,-56.96 35.637,-56.86C37.097,-56.753 38.327,-56.627 39.327,-56.48C40.327,-56.333 40.89,-56.2 41.017,-56.08C41.183,-55.867 41.277,-55.387 41.297,-54.64C41.317,-53.887 41.273,-53.063 41.167,-52.17C41.067,-51.277 40.923,-50.423 40.737,-49.61C40.55,-48.797 40.35,-48.263 40.137,-48.01ZM66.267,-56.01C66.347,-55.843 66.397,-55.26 66.417,-54.26C66.443,-53.26 66.443,-52.053 66.417,-50.64C66.397,-49.22 66.347,-47.71 66.267,-46.11C66.18,-44.503 66.077,-42.993 65.957,-41.58C65.703,-38.413 65.41,-35.287 65.077,-32.2C64.743,-29.12 64.42,-26.35 64.107,-23.89C63.793,-21.43 63.503,-19.42 63.237,-17.86C62.963,-16.293 62.807,-15.427 62.767,-15.26C62.68,-15.053 62.493,-14.743 62.207,-14.33C61.913,-13.91 61.6,-13.503 61.267,-13.11C60.933,-12.71 60.61,-12.363 60.297,-12.07C59.983,-11.783 59.743,-11.64 59.577,-11.64C59.243,-11.927 58.64,-13.073 57.767,-15.08C57.393,-15.953 56.933,-17.047 56.387,-18.36C55.847,-19.673 55.223,-21.287 54.517,-23.2C53.81,-25.12 52.987,-27.38 52.047,-29.98C51.107,-32.587 50.053,-35.62 48.887,-39.08C49.14,-35.66 49.35,-32.66 49.517,-30.08C49.683,-27.493 49.817,-25.243 49.917,-23.33C50.023,-21.41 50.097,-19.793 50.137,-18.48C50.183,-17.167 50.207,-16.073 50.207,-15.2C50.207,-13.2 50.143,-12.053 50.017,-11.76C49.597,-11.76 49.147,-11.96 48.667,-12.36C48.193,-12.753 47.747,-13.23 47.327,-13.79C46.913,-14.357 46.55,-14.91 46.237,-15.45C45.923,-15.99 45.747,-16.387 45.707,-16.64C45.66,-16.807 45.533,-17.577 45.327,-18.95C45.12,-20.323 44.88,-22.083 44.607,-24.23C44.34,-26.377 44.05,-28.793 43.737,-31.48C43.423,-34.167 43.13,-36.907 42.857,-39.7C42.59,-42.493 42.373,-45.213 42.207,-47.86C42.04,-50.507 41.957,-52.87 41.957,-54.95C41.957,-55.283 42.373,-55.73 43.207,-56.29C44.04,-56.857 44.987,-57.4 46.047,-57.92C47.107,-58.44 48.097,-58.897 49.017,-59.29C49.93,-59.69 50.493,-59.89 50.707,-59.89C50.873,-59.89 51.05,-59.41 51.237,-58.45C51.423,-57.49 51.63,-56.283 51.857,-54.83C52.09,-53.37 52.36,-51.743 52.667,-49.95C52.98,-48.157 53.327,-46.45 53.707,-44.83C54.04,-43.077 54.457,-41.097 54.957,-38.89C55.37,-37.017 55.9,-34.767 56.547,-32.14C57.193,-29.513 57.953,-26.597 58.827,-23.39C58.827,-25.637 58.837,-28.033 58.857,-30.58C58.877,-33.12 58.91,-35.64 58.957,-38.14C58.997,-40.64 59.047,-43.047 59.107,-45.36C59.173,-47.673 59.237,-49.723 59.297,-51.51C59.357,-53.303 59.42,-54.743 59.487,-55.83C59.547,-56.91 59.597,-57.493 59.637,-57.58C59.763,-57.747 60.16,-57.797 60.827,-57.73C61.493,-57.67 62.223,-57.547 63.017,-57.36C63.81,-57.173 64.527,-56.943 65.167,-56.67C65.813,-56.397 66.18,-56.177 66.267,-56.01ZM81.887,-53.26C81.807,-53.387 81.673,-53.513 81.487,-53.64C81.3,-53.767 81.08,-53.87 80.827,-53.95C80.58,-54.037 80.34,-54.067 80.107,-54.04C79.88,-54.02 79.703,-53.927 79.577,-53.76C79.45,-53.553 79.23,-52.773 78.917,-51.42C78.61,-50.067 78.29,-48.39 77.957,-46.39C77.623,-44.39 77.33,-42.16 77.077,-39.7C76.83,-37.24 76.707,-34.803 76.707,-32.39C76.707,-30.637 76.767,-28.813 76.887,-26.92C77.013,-25.027 77.17,-23.287 77.357,-21.7C77.543,-20.12 77.773,-18.817 78.047,-17.79C78.32,-16.77 78.6,-16.26 78.887,-16.26C79.18,-16.22 79.577,-16.533 80.077,-17.2C80.577,-17.867 81.057,-18.627 81.517,-19.48C81.977,-20.333 82.403,-21.167 82.797,-21.98C83.19,-22.793 83.45,-23.347 83.577,-23.64C83.743,-24.1 83.973,-24.61 84.267,-25.17C84.56,-25.73 84.85,-26.25 85.137,-26.73C85.43,-27.21 85.723,-27.607 86.017,-27.92C86.31,-28.233 86.56,-28.39 86.767,-28.39C87.013,-28.39 87.23,-28.14 87.417,-27.64C87.61,-27.14 87.757,-26.547 87.857,-25.86C87.963,-25.173 88.037,-24.463 88.077,-23.73C88.117,-23.003 88.137,-22.41 88.137,-21.95C88.137,-21.117 87.98,-20.077 87.667,-18.83C87.36,-17.577 86.967,-16.367 86.487,-15.2C86.007,-14.033 85.483,-13.033 84.917,-12.2C84.357,-11.367 83.827,-10.97 83.327,-11.01C82.827,-11.05 82.023,-11.343 80.917,-11.89C79.817,-12.43 78.683,-13.053 77.517,-13.76C76.35,-14.473 75.287,-15.183 74.327,-15.89C73.367,-16.597 72.803,-17.16 72.637,-17.58C72.43,-17.953 72.13,-18.857 71.737,-20.29C71.337,-21.73 70.93,-23.47 70.517,-25.51C70.097,-27.557 69.73,-29.807 69.417,-32.26C69.11,-34.72 68.957,-37.2 68.957,-39.7C68.957,-42.2 68.977,-44.67 69.017,-47.11C69.057,-49.543 69.15,-51.72 69.297,-53.64C69.443,-55.553 69.683,-57.103 70.017,-58.29C70.35,-59.483 70.807,-60.12 71.387,-60.2C72.553,-60.327 73.827,-60.253 75.207,-59.98C76.58,-59.713 77.953,-59.307 79.327,-58.76C80.7,-58.22 82.023,-57.607 83.297,-56.92C84.57,-56.233 85.707,-55.523 86.707,-54.79C87.707,-54.063 88.507,-53.367 89.107,-52.7C89.713,-52.033 90.037,-51.47 90.077,-51.01C90.117,-50.303 90.033,-49.513 89.827,-48.64C89.62,-47.767 89.37,-46.923 89.077,-46.11C88.783,-45.297 88.48,-44.567 88.167,-43.92C87.86,-43.273 87.623,-42.827 87.457,-42.58C87.243,-42.287 86.993,-41.973 86.707,-41.64C86.413,-41.307 86.11,-41.013 85.797,-40.76C85.483,-40.513 85.17,-40.337 84.857,-40.23C84.543,-40.13 84.263,-40.183 84.017,-40.39C83.85,-40.517 83.693,-40.913 83.547,-41.58C83.4,-42.247 83.253,-43.037 83.107,-43.95C82.96,-44.87 82.827,-45.86 82.707,-46.92C82.58,-47.98 82.463,-48.97 82.357,-49.89C82.257,-50.803 82.163,-51.573 82.077,-52.2C81.997,-52.827 81.933,-53.18 81.887,-53.26ZM107.827,-51.08C107.12,-51.033 106.423,-51.02 105.737,-51.04C105.05,-51.067 104.413,-51.08 103.827,-51.08C103.16,-51.08 102.537,-51.1 101.957,-51.14C102.037,-48.933 102.067,-46.36 102.047,-43.42C102.027,-40.48 101.983,-37.47 101.917,-34.39C101.857,-31.303 101.773,-28.293 101.667,-25.36C101.567,-22.42 101.453,-19.827 101.327,-17.58C102.913,-17.62 104.31,-17.62 105.517,-17.58C106.723,-17.533 107.37,-17.47 107.457,-17.39C107.537,-17.263 107.537,-16.857 107.457,-16.17C107.37,-15.483 107.243,-14.733 107.077,-13.92C106.91,-13.107 106.743,-12.357 106.577,-11.67C106.41,-10.983 106.287,-10.557 106.207,-10.39C105.04,-10.343 103.967,-10.333 102.987,-10.36C102.007,-10.38 101.163,-10.43 100.457,-10.51C99.623,-10.55 98.873,-10.613 98.207,-10.7C97.54,-10.827 96.83,-10.973 96.077,-11.14C95.45,-11.307 94.73,-11.513 93.917,-11.76C93.11,-12.013 92.29,-12.327 91.457,-12.7C91.29,-12.787 91.09,-13.017 90.857,-13.39C90.63,-13.763 90.4,-14.17 90.167,-14.61C89.94,-15.043 89.753,-15.47 89.607,-15.89C89.46,-16.303 89.387,-16.593 89.387,-16.76C89.387,-16.807 89.577,-16.86 89.957,-16.92C90.33,-16.98 90.85,-17.043 91.517,-17.11C92.183,-17.17 92.933,-17.23 93.767,-17.29C94.6,-17.357 95.497,-17.41 96.457,-17.45C96.37,-18.657 96.253,-20.25 96.107,-22.23C95.96,-24.21 95.813,-26.357 95.667,-28.67C95.527,-30.983 95.383,-33.357 95.237,-35.79C95.09,-38.23 94.973,-40.503 94.887,-42.61C94.807,-44.71 94.767,-46.553 94.767,-48.14C94.767,-49.72 94.83,-50.823 94.957,-51.45C94.997,-51.537 95.017,-51.61 95.017,-51.67C95.017,-51.73 95.037,-51.803 95.077,-51.89L93.327,-52.33C92.827,-52.45 92.287,-52.593 91.707,-52.76C91.12,-52.927 90.537,-53.117 89.957,-53.33C89.79,-53.41 89.57,-53.637 89.297,-54.01C89.023,-54.39 88.753,-54.807 88.487,-55.26C88.213,-55.72 87.983,-56.147 87.797,-56.54C87.61,-56.94 87.517,-57.223 87.517,-57.39C87.517,-57.47 88.047,-57.563 89.107,-57.67C90.173,-57.777 91.497,-57.87 93.077,-57.95C94.663,-58.037 96.383,-58.1 98.237,-58.14C100.09,-58.18 101.817,-58.2 103.417,-58.2C105.023,-58.2 106.38,-58.19 107.487,-58.17C108.587,-58.15 109.18,-58.097 109.267,-58.01C109.393,-57.89 109.403,-57.483 109.297,-56.79C109.19,-56.103 109.043,-55.353 108.857,-54.54C108.67,-53.733 108.483,-52.983 108.297,-52.29C108.11,-51.603 107.953,-51.2 107.827,-51.08ZM136.207,-28.89C136.287,-28.763 136.273,-28.347 136.167,-27.64C136.067,-26.933 135.923,-26.163 135.737,-25.33C135.55,-24.497 135.36,-23.713 135.167,-22.98C134.98,-22.253 134.827,-21.827 134.707,-21.7L134.077,-21.7C133.95,-21.7 133.827,-21.72 133.707,-21.76C133.913,-19.76 134.08,-18.157 134.207,-16.95C134.327,-15.743 134.387,-15.077 134.387,-14.95C134.387,-14.657 134.253,-14.24 133.987,-13.7C133.713,-13.16 133.41,-12.66 133.077,-12.2C132.743,-11.74 132.4,-11.377 132.047,-11.11C131.693,-10.837 131.453,-10.823 131.327,-11.07C131.12,-11.45 130.683,-12.577 130.017,-14.45C129.35,-16.323 128.6,-18.887 127.767,-22.14C126.933,-22.22 126.067,-22.303 125.167,-22.39C124.273,-22.47 123.37,-22.553 122.457,-22.64C121.537,-22.72 120.63,-22.833 119.737,-22.98C118.837,-23.127 117.97,-23.263 117.137,-23.39C116.723,-21.557 116.317,-19.827 115.917,-18.2C115.523,-16.573 115.15,-15.157 114.797,-13.95C114.443,-12.743 114.14,-11.783 113.887,-11.07C113.64,-10.363 113.453,-10.01 113.327,-10.01C112.993,-10.01 112.66,-10.22 112.327,-10.64C111.993,-11.053 111.69,-11.553 111.417,-12.14C111.15,-12.72 110.933,-13.323 110.767,-13.95C110.6,-14.577 110.517,-15.097 110.517,-15.51C110.597,-16.47 110.71,-17.47 110.857,-18.51C111.003,-19.557 111.12,-20.517 111.207,-21.39C111.327,-22.43 111.45,-23.45 111.577,-24.45L111.327,-24.45C111.16,-24.537 110.93,-24.723 110.637,-25.01C110.35,-25.303 110.06,-25.607 109.767,-25.92C109.473,-26.233 109.223,-26.547 109.017,-26.86C108.81,-27.173 108.707,-27.413 108.707,-27.58C108.707,-27.66 109.007,-27.743 109.607,-27.83C110.213,-27.91 111.017,-27.993 112.017,-28.08C112.35,-30.58 112.703,-33.183 113.077,-35.89C113.45,-38.597 113.827,-41.137 114.207,-43.51C114.58,-45.89 114.943,-47.963 115.297,-49.73C115.65,-51.503 115.953,-52.723 116.207,-53.39C116.62,-54.517 117.347,-55.527 118.387,-56.42C119.433,-57.313 120.527,-58.063 121.667,-58.67C122.813,-59.277 123.91,-59.747 124.957,-60.08C125.997,-60.413 126.767,-60.58 127.267,-60.58C127.473,-60.58 127.713,-60.11 127.987,-59.17C128.253,-58.23 128.543,-56.97 128.857,-55.39C129.17,-53.803 129.503,-51.96 129.857,-49.86C130.21,-47.753 130.553,-45.533 130.887,-43.2C131.22,-40.867 131.543,-38.48 131.857,-36.04C132.17,-33.607 132.473,-31.287 132.767,-29.08C134.847,-29.08 135.993,-29.017 136.207,-28.89ZM118.327,-28.51C119.66,-28.597 120.993,-28.66 122.327,-28.7C123.66,-28.74 124.973,-28.803 126.267,-28.89C125.933,-30.517 125.557,-32.33 125.137,-34.33C124.803,-36.037 124.41,-38.037 123.957,-40.33C123.497,-42.617 123.037,-45.137 122.577,-47.89C122.077,-45.43 121.577,-43.043 121.077,-40.73C120.577,-38.417 120.12,-36.343 119.707,-34.51C119.247,-32.39 118.787,-30.39 118.327,-28.51ZM157.457,-31.7C157.457,-31.16 157.443,-30.307 157.417,-29.14C157.397,-27.973 157.367,-26.66 157.327,-25.2C157.287,-23.74 157.233,-22.23 157.167,-20.67C157.107,-19.11 157.013,-17.693 156.887,-16.42C156.767,-15.147 156.633,-14.093 156.487,-13.26C156.34,-12.427 156.163,-12.01 155.957,-12.01C155.33,-12.01 154.733,-12.46 154.167,-13.36C153.607,-14.253 153.037,-15.22 152.457,-16.26C152.33,-16.513 152.193,-17.253 152.047,-18.48C151.9,-19.713 151.753,-21.267 151.607,-23.14C151.46,-25.013 151.327,-27.097 151.207,-29.39C151.08,-31.683 150.953,-34.017 150.827,-36.39C150.7,-38.763 150.607,-41.097 150.547,-43.39C150.487,-45.683 150.433,-47.747 150.387,-49.58C150.347,-51.413 150.347,-52.943 150.387,-54.17C150.433,-55.397 150.517,-56.117 150.637,-56.33C150.803,-56.617 151.387,-56.833 152.387,-56.98C153.387,-57.127 154.607,-57.2 156.047,-57.2C157.487,-57.2 159.04,-57.16 160.707,-57.08C162.373,-56.993 163.923,-56.877 165.357,-56.73C166.797,-56.583 168.007,-56.427 168.987,-56.26C169.967,-56.093 170.517,-55.95 170.637,-55.83C170.803,-55.663 170.837,-55.213 170.737,-54.48C170.63,-53.753 170.463,-52.963 170.237,-52.11C170.003,-51.257 169.73,-50.453 169.417,-49.7C169.11,-48.953 168.85,-48.473 168.637,-48.26C168.43,-48.053 167.463,-48.077 165.737,-48.33C164.003,-48.577 161.243,-48.867 157.457,-49.2L157.457,-38.76C160.37,-38.513 162.65,-38.287 164.297,-38.08C165.943,-37.867 166.807,-37.72 166.887,-37.64C167.053,-37.473 167.117,-37.14 167.077,-36.64C167.037,-36.14 166.933,-35.607 166.767,-35.04C166.6,-34.48 166.39,-33.96 166.137,-33.48C165.89,-33 165.64,-32.677 165.387,-32.51C165.267,-32.43 164.527,-32.307 163.167,-32.14C161.813,-31.973 159.91,-31.827 157.457,-31.7ZM186.267,-51.08C185.56,-51.033 184.86,-51.02 184.167,-51.04C183.48,-51.067 182.847,-51.08 182.267,-51.08C181.6,-51.08 180.973,-51.1 180.387,-51.14C180.473,-48.933 180.507,-46.36 180.487,-43.42C180.467,-40.48 180.423,-37.47 180.357,-34.39C180.297,-31.303 180.213,-28.293 180.107,-25.36C180.007,-22.42 179.893,-19.827 179.767,-17.58C181.347,-17.62 182.743,-17.62 183.957,-17.58C185.163,-17.533 185.807,-17.47 185.887,-17.39C185.973,-17.263 185.973,-16.857 185.887,-16.17C185.807,-15.483 185.683,-14.733 185.517,-13.92C185.35,-13.107 185.183,-12.357 185.017,-11.67C184.85,-10.983 184.723,-10.557 184.637,-10.39C183.47,-10.343 182.397,-10.333 181.417,-10.36C180.443,-10.38 179.6,-10.43 178.887,-10.51C178.053,-10.55 177.303,-10.613 176.637,-10.7C175.97,-10.827 175.263,-10.973 174.517,-11.14C173.89,-11.307 173.17,-11.513 172.357,-11.76C171.543,-12.013 170.72,-12.327 169.887,-12.7C169.72,-12.787 169.523,-13.017 169.297,-13.39C169.07,-13.763 168.84,-14.17 168.607,-14.61C168.38,-15.043 168.193,-15.47 168.047,-15.89C167.9,-16.303 167.827,-16.593 167.827,-16.76C167.827,-16.807 168.013,-16.86 168.387,-16.92C168.767,-16.98 169.29,-17.043 169.957,-17.11C170.623,-17.17 171.373,-17.23 172.207,-17.29C173.04,-17.357 173.933,-17.41 174.887,-17.45C174.807,-18.657 174.693,-20.25 174.547,-22.23C174.4,-24.21 174.253,-26.357 174.107,-28.67C173.96,-30.983 173.813,-33.357 173.667,-35.79C173.527,-38.23 173.413,-40.503 173.327,-42.61C173.247,-44.71 173.207,-46.553 173.207,-48.14C173.207,-49.72 173.267,-50.823 173.387,-51.45C173.433,-51.537 173.457,-51.61 173.457,-51.67C173.457,-51.73 173.477,-51.803 173.517,-51.89L171.767,-52.33C171.267,-52.45 170.723,-52.593 170.137,-52.76C169.557,-52.927 168.973,-53.117 168.387,-53.33C168.22,-53.41 168.003,-53.637 167.737,-54.01C167.463,-54.39 167.19,-54.807 166.917,-55.26C166.65,-55.72 166.423,-56.147 166.237,-56.54C166.05,-56.94 165.957,-57.223 165.957,-57.39C165.957,-57.47 166.487,-57.563 167.547,-57.67C168.607,-57.777 169.93,-57.87 171.517,-57.95C173.097,-58.037 174.813,-58.1 176.667,-58.14C178.527,-58.18 180.257,-58.2 181.857,-58.2C183.463,-58.2 184.817,-58.19 185.917,-58.17C187.023,-58.15 187.62,-58.097 187.707,-58.01C187.827,-57.89 187.837,-57.483 187.737,-56.79C187.63,-56.103 187.483,-55.353 187.297,-54.54C187.11,-53.733 186.923,-52.983 186.737,-52.29C186.55,-51.603 186.393,-51.2 186.267,-51.08ZM200.707,-53.26C200.62,-53.387 200.483,-53.513 200.297,-53.64C200.11,-53.767 199.89,-53.87 199.637,-53.95C199.39,-54.037 199.15,-54.067 198.917,-54.04C198.69,-54.02 198.513,-53.927 198.387,-53.76C198.267,-53.553 198.05,-52.773 197.737,-51.42C197.423,-50.067 197.1,-48.39 196.767,-46.39C196.433,-44.39 196.14,-42.16 195.887,-39.7C195.64,-37.24 195.517,-34.803 195.517,-32.39C195.517,-30.637 195.58,-28.813 195.707,-26.92C195.827,-25.027 195.98,-23.287 196.167,-21.7C196.36,-20.12 196.59,-18.817 196.857,-17.79C197.13,-16.77 197.413,-16.26 197.707,-16.26C197.993,-16.22 198.387,-16.533 198.887,-17.2C199.387,-17.867 199.867,-18.627 200.327,-19.48C200.787,-20.333 201.213,-21.167 201.607,-21.98C202.007,-22.793 202.267,-23.347 202.387,-23.64C202.553,-24.1 202.783,-24.61 203.077,-25.17C203.37,-25.73 203.663,-26.25 203.957,-26.73C204.243,-27.21 204.533,-27.607 204.827,-27.92C205.12,-28.233 205.37,-28.39 205.577,-28.39C205.83,-28.39 206.05,-28.14 206.237,-27.64C206.423,-27.14 206.567,-26.547 206.667,-25.86C206.773,-25.173 206.847,-24.463 206.887,-23.73C206.933,-23.003 206.957,-22.41 206.957,-21.95C206.957,-21.117 206.8,-20.077 206.487,-18.83C206.173,-17.577 205.777,-16.367 205.297,-15.2C204.817,-14.033 204.297,-13.033 203.737,-12.2C203.17,-11.367 202.637,-10.97 202.137,-11.01C201.637,-11.05 200.837,-11.343 199.737,-11.89C198.63,-12.43 197.493,-13.053 196.327,-13.76C195.16,-14.473 194.097,-15.183 193.137,-15.89C192.183,-16.597 191.623,-17.16 191.457,-17.58C191.243,-17.953 190.94,-18.857 190.547,-20.29C190.153,-21.73 189.747,-23.47 189.327,-25.51C188.913,-27.557 188.55,-29.807 188.237,-32.26C187.923,-34.72 187.767,-37.2 187.767,-39.7C187.767,-42.2 187.787,-44.67 187.827,-47.11C187.867,-49.543 187.96,-51.72 188.107,-53.64C188.253,-55.553 188.493,-57.103 188.827,-58.29C189.16,-59.483 189.62,-60.12 190.207,-60.2C191.373,-60.327 192.643,-60.253 194.017,-59.98C195.39,-59.713 196.763,-59.307 198.137,-58.76C199.517,-58.22 200.84,-57.607 202.107,-56.92C203.38,-56.233 204.517,-55.523 205.517,-54.79C206.517,-54.063 207.317,-53.367 207.917,-52.7C208.523,-52.033 208.847,-51.47 208.887,-51.01C208.933,-50.303 208.85,-49.513 208.637,-48.64C208.43,-47.767 208.18,-46.923 207.887,-46.11C207.6,-45.297 207.3,-44.567 206.987,-43.92C206.673,-43.273 206.433,-42.827 206.267,-42.58C206.06,-42.287 205.81,-41.973 205.517,-41.64C205.223,-41.307 204.92,-41.013 204.607,-40.76C204.293,-40.513 203.98,-40.337 203.667,-40.23C203.36,-40.13 203.08,-40.183 202.827,-40.39C202.66,-40.517 202.503,-40.913 202.357,-41.58C202.21,-42.247 202.063,-43.037 201.917,-43.95C201.777,-44.87 201.643,-45.86 201.517,-46.92C201.39,-47.98 201.273,-48.97 201.167,-49.89C201.067,-50.803 200.973,-51.573 200.887,-52.2C200.807,-52.827 200.747,-53.18 200.707,-53.26ZM223.077,-53.26C222.997,-53.387 222.86,-53.513 222.667,-53.64C222.48,-53.767 222.263,-53.87 222.017,-53.95C221.763,-54.037 221.523,-54.067 221.297,-54.04C221.07,-54.02 220.893,-53.927 220.767,-53.76C220.64,-53.553 220.42,-52.773 220.107,-51.42C219.793,-50.067 219.47,-48.39 219.137,-46.39C218.803,-44.39 218.513,-42.16 218.267,-39.7C218.013,-37.24 217.887,-34.803 217.887,-32.39C217.887,-30.637 217.95,-28.813 218.077,-26.92C218.203,-25.027 218.36,-23.287 218.547,-21.7C218.733,-20.12 218.963,-18.817 219.237,-17.79C219.503,-16.77 219.783,-16.26 220.077,-16.26C220.37,-16.22 220.767,-16.533 221.267,-17.2C221.767,-17.867 222.247,-18.627 222.707,-19.48C223.16,-20.333 223.587,-21.167 223.987,-21.98C224.38,-22.793 224.64,-23.347 224.767,-23.64C224.933,-24.1 225.163,-24.61 225.457,-25.17C225.743,-25.73 226.033,-26.25 226.327,-26.73C226.62,-27.21 226.913,-27.607 227.207,-27.92C227.493,-28.233 227.743,-28.39 227.957,-28.39C228.203,-28.39 228.42,-28.14 228.607,-27.64C228.793,-27.14 228.94,-26.547 229.047,-25.86C229.153,-25.173 229.227,-24.463 229.267,-23.73C229.307,-23.003 229.327,-22.41 229.327,-21.95C229.327,-21.117 229.17,-20.077 228.857,-18.83C228.543,-17.577 228.147,-16.367 227.667,-15.2C227.193,-14.033 226.673,-13.033 226.107,-12.2C225.547,-11.367 225.017,-10.97 224.517,-11.01C224.017,-11.05 223.213,-11.343 222.107,-11.89C221.007,-12.43 219.873,-13.053 218.707,-13.76C217.54,-14.473 216.477,-15.183 215.517,-15.89C214.557,-16.597 213.993,-17.16 213.827,-17.58C213.62,-17.953 213.317,-18.857 212.917,-20.29C212.523,-21.73 212.12,-23.47 211.707,-25.51C211.287,-27.557 210.92,-29.807 210.607,-32.26C210.293,-34.72 210.137,-37.2 210.137,-39.7C210.137,-42.2 210.16,-44.67 210.207,-47.11C210.247,-49.543 210.34,-51.72 210.487,-53.64C210.633,-55.553 210.873,-57.103 211.207,-58.29C211.54,-59.483 211.997,-60.12 212.577,-60.2C213.743,-60.327 215.013,-60.253 216.387,-59.98C217.767,-59.713 219.143,-59.307 220.517,-58.76C221.89,-58.22 223.213,-57.607 224.487,-56.92C225.753,-56.233 226.887,-55.523 227.887,-54.79C228.887,-54.063 229.69,-53.367 230.297,-52.7C230.903,-52.033 231.227,-51.47 231.267,-51.01C231.307,-50.303 231.223,-49.513 231.017,-48.64C230.81,-47.767 230.56,-46.923 230.267,-46.11C229.973,-45.297 229.67,-44.567 229.357,-43.92C229.043,-43.273 228.803,-42.827 228.637,-42.58C228.43,-42.287 228.18,-41.973 227.887,-41.64C227.6,-41.307 227.3,-41.013 226.987,-40.76C226.673,-40.513 226.36,-40.337 226.047,-40.23C225.733,-40.13 225.453,-40.183 225.207,-40.39C225.04,-40.517 224.883,-40.913 224.737,-41.58C224.59,-42.247 224.443,-43.037 224.297,-43.95C224.15,-44.87 224.013,-45.86 223.887,-46.92C223.767,-47.98 223.653,-48.97 223.547,-49.89C223.44,-50.803 223.347,-51.573 223.267,-52.2C223.18,-52.827 223.117,-53.18 223.077,-53.26ZM249.017,-51.08C248.31,-51.033 247.61,-51.02 246.917,-51.04C246.23,-51.067 245.597,-51.08 245.017,-51.08C244.35,-51.08 243.723,-51.1 243.137,-51.14C243.223,-48.933 243.257,-46.36 243.237,-43.42C243.217,-40.48 243.173,-37.47 243.107,-34.39C243.047,-31.303 242.963,-28.293 242.857,-25.36C242.757,-22.42 242.643,-19.827 242.517,-17.58C244.097,-17.62 245.493,-17.62 246.707,-17.58C247.913,-17.533 248.557,-17.47 248.637,-17.39C248.723,-17.263 248.723,-16.857 248.637,-16.17C248.557,-15.483 248.433,-14.733 248.267,-13.92C248.1,-13.107 247.933,-12.357 247.767,-11.67C247.6,-10.983 247.473,-10.557 247.387,-10.39C246.22,-10.343 245.147,-10.333 244.167,-10.36C243.193,-10.38 242.35,-10.43 241.637,-10.51C240.803,-10.55 240.053,-10.613 239.387,-10.7C238.72,-10.827 238.013,-10.973 237.267,-11.14C236.64,-11.307 235.92,-11.513 235.107,-11.76C234.293,-12.013 233.47,-12.327 232.637,-12.7C232.47,-12.787 232.273,-13.017 232.047,-13.39C231.82,-13.763 231.59,-14.17 231.357,-14.61C231.13,-15.043 230.943,-15.47 230.797,-15.89C230.65,-16.303 230.577,-16.593 230.577,-16.76C230.577,-16.807 230.763,-16.86 231.137,-16.92C231.517,-16.98 232.04,-17.043 232.707,-17.11C233.373,-17.17 234.123,-17.23 234.957,-17.29C235.79,-17.357 236.683,-17.41 237.637,-17.45C237.557,-18.657 237.443,-20.25 237.297,-22.23C237.15,-24.21 237.003,-26.357 236.857,-28.67C236.71,-30.983 236.563,-33.357 236.417,-35.79C236.277,-38.23 236.163,-40.503 236.077,-42.61C235.997,-44.71 235.957,-46.553 235.957,-48.14C235.957,-49.72 236.017,-50.823 236.137,-51.45C236.183,-51.537 236.207,-51.61 236.207,-51.67C236.207,-51.73 236.227,-51.803 236.267,-51.89L234.517,-52.33C234.017,-52.45 233.473,-52.593 232.887,-52.76C232.307,-52.927 231.723,-53.117 231.137,-53.33C230.97,-53.41 230.753,-53.637 230.487,-54.01C230.213,-54.39 229.94,-54.807 229.667,-55.26C229.4,-55.72 229.173,-56.147 228.987,-56.54C228.8,-56.94 228.707,-57.223 228.707,-57.39C228.707,-57.47 229.237,-57.563 230.297,-57.67C231.357,-57.777 232.68,-57.87 234.267,-57.95C235.847,-58.037 237.563,-58.1 239.417,-58.14C241.277,-58.18 243.007,-58.2 244.607,-58.2C246.213,-58.2 247.567,-58.19 248.667,-58.17C249.773,-58.15 250.37,-58.097 250.457,-58.01C250.577,-57.89 250.587,-57.483 250.487,-56.79C250.38,-56.103 250.233,-55.353 250.047,-54.54C249.86,-53.733 249.673,-52.983 249.487,-52.29C249.3,-51.603 249.143,-51.2 249.017,-51.08ZM252.457,-52.45C252.663,-52.823 253.1,-53.313 253.767,-53.92C254.433,-54.527 255.233,-55.14 256.167,-55.76C257.107,-56.387 258.12,-56.96 259.207,-57.48C260.287,-58 261.38,-58.353 262.487,-58.54C263.587,-58.733 264.627,-58.693 265.607,-58.42C266.587,-58.147 267.43,-57.553 268.137,-56.64C268.517,-56.18 268.873,-55.263 269.207,-53.89C269.54,-52.517 269.86,-50.86 270.167,-48.92C270.48,-46.98 270.763,-44.833 271.017,-42.48C271.263,-40.127 271.47,-37.73 271.637,-35.29C271.803,-32.857 271.92,-30.463 271.987,-28.11C272.047,-25.757 272.047,-23.59 271.987,-21.61C271.92,-19.63 271.793,-17.94 271.607,-16.54C271.42,-15.147 271.14,-14.18 270.767,-13.64C270.013,-12.553 268.847,-11.823 267.267,-11.45C265.68,-11.077 264.013,-11.067 262.267,-11.42C260.513,-11.773 258.847,-12.493 257.267,-13.58C255.68,-14.66 254.513,-16.117 253.767,-17.95C253.267,-19.157 252.86,-20.803 252.547,-22.89C252.233,-24.97 251.993,-27.23 251.827,-29.67C251.66,-32.11 251.567,-34.6 251.547,-37.14C251.527,-39.68 251.547,-42.023 251.607,-44.17C251.673,-46.317 251.777,-48.14 251.917,-49.64C252.063,-51.14 252.243,-52.077 252.457,-52.45ZM264.707,-20.76C264.953,-21.013 265.13,-21.69 265.237,-22.79C265.337,-23.897 265.397,-25.21 265.417,-26.73C265.443,-28.25 265.443,-29.867 265.417,-31.58C265.397,-33.287 265.387,-34.87 265.387,-36.33C265.387,-40.037 265.263,-42.91 265.017,-44.95C264.763,-46.99 264.47,-48.51 264.137,-49.51C263.763,-50.677 263.347,-51.407 262.887,-51.7C262.267,-51.573 261.747,-51.377 261.327,-51.11C260.913,-50.837 260.58,-50.533 260.327,-50.2C260.033,-49.827 259.803,-49.43 259.637,-49.01C259.517,-48.637 259.383,-47.91 259.237,-46.83C259.09,-45.743 258.953,-44.46 258.827,-42.98C258.7,-41.5 258.587,-39.897 258.487,-38.17C258.38,-36.443 258.297,-34.747 258.237,-33.08C258.17,-31.413 258.127,-29.84 258.107,-28.36C258.087,-26.88 258.097,-25.66 258.137,-24.7C258.223,-23.24 258.567,-22.177 259.167,-21.51C259.773,-20.843 260.43,-20.417 261.137,-20.23C261.85,-20.043 262.55,-20.033 263.237,-20.2C263.923,-20.367 264.413,-20.553 264.707,-20.76ZM266.387,-68.01C265.887,-67.39 265.293,-66.723 264.607,-66.01C263.92,-65.303 263.243,-64.627 262.577,-63.98C261.91,-63.333 261.297,-62.77 260.737,-62.29C260.17,-61.817 259.743,-61.517 259.457,-61.39C258.997,-61.183 258.473,-61.247 257.887,-61.58C257.307,-61.913 256.997,-62.37 256.957,-62.95C256.957,-63.117 257.123,-63.523 257.457,-64.17C257.79,-64.817 258.183,-65.513 258.637,-66.26C259.097,-67.013 259.557,-67.743 260.017,-68.45C260.477,-69.157 260.83,-69.657 261.077,-69.95C261.37,-70.283 261.557,-70.513 261.637,-70.64C261.723,-70.767 261.87,-70.87 262.077,-70.95C262.45,-71.203 262.95,-71.34 263.577,-71.36C264.203,-71.38 264.83,-71.317 265.457,-71.17C266.077,-71.023 266.597,-70.803 267.017,-70.51C267.43,-70.223 267.597,-69.933 267.517,-69.64C267.477,-69.473 267.33,-69.223 267.077,-68.89C266.83,-68.557 266.6,-68.263 266.387,-68.01ZM299.207,-56.01C299.287,-55.843 299.337,-55.26 299.357,-54.26C299.377,-53.26 299.377,-52.053 299.357,-50.64C299.337,-49.22 299.287,-47.71 299.207,-46.11C299.12,-44.503 299.013,-42.993 298.887,-41.58C298.64,-38.413 298.35,-35.287 298.017,-32.2C297.683,-29.12 297.36,-26.35 297.047,-23.89C296.733,-21.43 296.44,-19.42 296.167,-17.86C295.9,-16.293 295.747,-15.427 295.707,-15.26C295.62,-15.053 295.43,-14.743 295.137,-14.33C294.85,-13.91 294.54,-13.503 294.207,-13.11C293.873,-12.71 293.55,-12.363 293.237,-12.07C292.923,-11.783 292.683,-11.64 292.517,-11.64C292.183,-11.927 291.58,-13.073 290.707,-15.08C290.327,-15.953 289.867,-17.047 289.327,-18.36C288.787,-19.673 288.163,-21.287 287.457,-23.2C286.743,-25.12 285.92,-27.38 284.987,-29.98C284.047,-32.587 282.993,-35.62 281.827,-39.08C282.08,-35.66 282.29,-32.66 282.457,-30.08C282.623,-27.493 282.757,-25.243 282.857,-23.33C282.963,-21.41 283.037,-19.793 283.077,-18.48C283.117,-17.167 283.137,-16.073 283.137,-15.2C283.137,-13.2 283.077,-12.053 282.957,-11.76C282.537,-11.76 282.087,-11.96 281.607,-12.36C281.127,-12.753 280.68,-13.23 280.267,-13.79C279.847,-14.357 279.48,-14.91 279.167,-15.45C278.86,-15.99 278.683,-16.387 278.637,-16.64C278.597,-16.807 278.473,-17.577 278.267,-18.95C278.06,-20.323 277.82,-22.083 277.547,-24.23C277.273,-26.377 276.98,-28.793 276.667,-31.48C276.36,-34.167 276.07,-36.907 275.797,-39.7C275.523,-42.493 275.303,-45.213 275.137,-47.86C274.97,-50.507 274.887,-52.87 274.887,-54.95C274.887,-55.283 275.303,-55.73 276.137,-56.29C276.97,-56.857 277.92,-57.4 278.987,-57.92C280.047,-58.44 281.037,-58.897 281.957,-59.29C282.87,-59.69 283.43,-59.89 283.637,-59.89C283.803,-59.89 283.98,-59.41 284.167,-58.45C284.36,-57.49 284.57,-56.283 284.797,-54.83C285.023,-53.37 285.293,-51.743 285.607,-49.95C285.92,-48.157 286.263,-46.45 286.637,-44.83C286.97,-43.077 287.387,-41.097 287.887,-38.89C288.307,-37.017 288.84,-34.767 289.487,-32.14C290.133,-29.513 290.893,-26.597 291.767,-23.39C291.767,-25.637 291.777,-28.033 291.797,-30.58C291.817,-33.12 291.847,-35.64 291.887,-38.14C291.933,-40.64 291.987,-43.047 292.047,-45.36C292.107,-47.673 292.17,-49.723 292.237,-51.51C292.297,-53.303 292.357,-54.743 292.417,-55.83C292.483,-56.91 292.537,-57.493 292.577,-57.58C292.703,-57.747 293.1,-57.797 293.767,-57.73C294.433,-57.67 295.163,-57.547 295.957,-57.36C296.743,-57.173 297.46,-56.943 298.107,-56.67C298.753,-56.397 299.12,-56.177 299.207,-56.01Z" style="fill:url(#_Linear1);fill-rule:nonzero;"/>
                </g>
            </g>
        </g>
    </g>
    <defs>
        <linearGradient id="_Linear1" x1="0" y1="0" x2="1" y2="0" gradientUnits="userSpaceOnUse" gradientTransform="matrix(-200.939,-47.6807,47.6807,-200.939,240.193,-16.8464)"><stop offset="0" style="stop-color:rgb(103,255,67);stop-opacity:1"/><stop offset="1" style="stop-color:rgb(144,255,255);stop-opacity:1"/></linearGradient>
    </defs>
</svg>
