<?xml version="1.0" encoding="UTF-8" standalone="no"?>
<!DOCTYPE svg PUBLIC "-//W3C//DTD SVG 1.1//EN" "http://www.w3.org/Graphics/SVG/1.1/DTD/svg11.dtd">
<svg width="100%" height="100%" viewBox="0 0 240 144" version="1.1" xmlns="http://www.w3.org/2000/svg" xmlns:xlink="http://www.w3.org/1999/xlink" xml:space="preserve" xmlns:serif="http://www.serif.com/" style="fill-rule:evenodd;clip-rule:evenodd;stroke-linejoin:round;stroke-miterlimit:2;">
    <g transform="matrix(1.93033,0,0,1.41005,-20.8768,-20.5477)">
        <rect x="10.815" y="14.572" width="124.331" height="102.124" style="fill:rgb(45,48,60);"/>
    </g>
    <g transform="matrix(0.649277,0,0,0.649277,120,72)">
        <g transform="matrix(1,0,0,1,-212.673,-65.8)">
            <g transform="matrix(1,0,0,1,100.465,98.53)">
                <g>
                    <path d="M-0.387,-51.01L-5.577,-46.39C-6.537,-47.47 -7.557,-48.283 -8.637,-48.83C-9.723,-49.37 -10.89,-49.68 -12.137,-49.76L-12.137,-55.95C-7.47,-55.743 -3.553,-54.097 -0.387,-51.01ZM-12.137,-8.89L-12.137,-15.08C-10.89,-15.2 -9.713,-15.533 -8.607,-16.08C-7.5,-16.62 -6.49,-17.41 -5.577,-18.45L-0.387,-13.89C-1.973,-12.35 -3.743,-11.163 -5.697,-10.33C-7.657,-9.49 -9.803,-9.01 -12.137,-8.89ZM-32.387,-32.45C-32.387,-36.157 -31.94,-39.427 -31.047,-42.26C-30.147,-45.093 -28.907,-47.49 -27.327,-49.45C-25.74,-51.41 -23.877,-52.93 -21.737,-54.01C-19.59,-55.097 -17.243,-55.743 -14.697,-55.95L-14.697,-49.7C-16.077,-49.493 -17.37,-49.023 -18.577,-48.29C-19.783,-47.563 -20.847,-46.513 -21.767,-45.14C-22.68,-43.767 -23.397,-42.027 -23.917,-39.92C-24.437,-37.813 -24.72,-35.323 -24.767,-32.45C-24.72,-29.537 -24.437,-27.037 -23.917,-24.95C-23.397,-22.87 -22.68,-21.12 -21.767,-19.7C-20.847,-18.287 -19.773,-17.203 -18.547,-16.45C-17.313,-15.703 -16.03,-15.247 -14.697,-15.08L-14.697,-8.95C-17.243,-9.117 -19.59,-9.743 -21.737,-10.83C-23.877,-11.91 -25.74,-13.43 -27.327,-15.39C-28.907,-17.35 -30.147,-19.757 -31.047,-22.61C-31.94,-25.463 -32.387,-28.743 -32.387,-32.45ZM9.423,-32.45C9.423,-36.157 9.87,-39.437 10.763,-42.29C11.663,-45.15 12.913,-47.567 14.513,-49.54C16.12,-51.52 18.017,-53.043 20.203,-54.11C22.39,-55.17 24.777,-55.783 27.363,-55.95L27.363,-49.7C25.943,-49.533 24.61,-49.097 23.363,-48.39C22.11,-47.683 21.027,-46.64 20.113,-45.26C19.193,-43.887 18.463,-42.137 17.923,-40.01C17.383,-37.89 17.093,-35.37 17.053,-32.45C17.093,-29.49 17.383,-26.96 17.923,-24.86C18.463,-22.753 19.203,-20.993 20.143,-19.58C21.083,-18.16 22.177,-17.087 23.423,-16.36C24.677,-15.627 25.99,-15.2 27.363,-15.08L27.363,-8.89C24.823,-9.057 22.447,-9.67 20.233,-10.73C18.027,-11.797 16.12,-13.317 14.513,-15.29C12.913,-17.27 11.663,-19.7 10.763,-22.58C9.87,-25.453 9.423,-28.743 9.423,-32.45ZM29.863,-49.76L29.863,-55.95C32.403,-55.823 34.767,-55.22 36.953,-54.14C39.14,-53.053 41.037,-51.52 42.643,-49.54C44.25,-47.567 45.51,-45.15 46.423,-42.29C47.343,-39.437 47.803,-36.157 47.803,-32.45C47.803,-28.743 47.343,-25.453 46.423,-22.58C45.51,-19.7 44.25,-17.27 42.643,-15.29C41.037,-13.317 39.15,-11.797 36.983,-10.73C34.817,-9.67 32.443,-9.057 29.863,-8.89L29.863,-15.08C31.277,-15.247 32.61,-15.693 33.863,-16.42C35.11,-17.147 36.193,-18.21 37.113,-19.61C38.027,-21.003 38.757,-22.753 39.303,-24.86C39.843,-26.96 40.133,-29.49 40.173,-32.45C40.133,-35.41 39.843,-37.94 39.303,-40.04C38.757,-42.147 38.017,-43.897 37.083,-45.29C36.143,-46.69 35.05,-47.753 33.803,-48.48C32.55,-49.213 31.237,-49.64 29.863,-49.76ZM58.363,-9.2L58.363,-55.26L65.983,-55.26L78.363,-26.83L78.363,-15.26L76.363,-15.26L65.983,-40.89L65.983,-9.2L58.363,-9.2ZM80.923,-26.7L93.303,-55.26L100.923,-55.26L100.923,-9.2L93.303,-9.2L93.303,-40.89L82.983,-15.26L80.923,-15.26L80.923,-26.7ZM112.613,-9.2L112.613,-55.26L120.233,-55.26L120.233,-9.2L112.613,-9.2ZM139.483,-35.08L139.483,-29.95L122.803,-29.95L122.803,-35.08L139.483,-35.08ZM122.803,-9.2L122.803,-14.89L141.423,-14.89L141.423,-9.2L122.803,-9.2ZM122.803,-55.26L141.423,-55.26L141.423,-49.58L122.803,-49.58L122.803,-55.26ZM151.923,-9.2L151.923,-55.26L159.423,-55.26L159.423,-9.2L151.923,-9.2ZM161.983,-55.26L165.803,-55.26C169.677,-55.26 173.08,-54.647 176.013,-53.42C178.953,-52.193 181.393,-50.557 183.333,-48.51C185.267,-46.47 186.713,-44.147 187.673,-41.54C188.633,-38.94 189.113,-36.263 189.113,-33.51C189.113,-29.723 188.707,-26.483 187.893,-23.79C187.08,-21.103 186.05,-18.853 184.803,-17.04C183.55,-15.233 182.143,-13.807 180.583,-12.76C179.017,-11.72 177.507,-10.94 176.053,-10.42C174.593,-9.9 173.26,-9.567 172.053,-9.42C170.84,-9.273 169.943,-9.2 169.363,-9.2L161.983,-9.2L161.983,-14.7L166.863,-14.7C171.943,-14.7 175.61,-16.327 177.863,-19.58C180.11,-22.827 181.233,-27.533 181.233,-33.7C181.233,-35.62 181.007,-37.517 180.553,-39.39C180.093,-41.263 179.207,-42.96 177.893,-44.48C176.58,-46 174.8,-47.23 172.553,-48.17C170.3,-49.11 167.383,-49.58 163.803,-49.58L161.983,-49.58L161.983,-55.26ZM207.553,-55.26L207.553,-9.2L199.923,-9.2L199.923,-55.26L207.553,-55.26ZM240.803,-55.2L256.803,-9.2L249.053,-9.2L237.113,-43.7L225.053,-9.2L217.233,-9.2L233.363,-55.2L240.803,-55.2ZM232.863,-23.83L241.233,-23.83L243.053,-18.76L231.113,-18.76L232.863,-23.83Z" style="fill:white;fill-rule:nonzero;"/>
                </g>
            </g>
        </g>
    </g>
</svg>
