<?xml version="1.0" encoding="UTF-8" standalone="no"?>
<!DOCTYPE svg PUBLIC "-//W3C//DTD SVG 1.1//EN" "http://www.w3.org/Graphics/SVG/1.1/DTD/svg11.dtd">
<svg width="100%" height="100%" viewBox="0 0 240 144" version="1.1" xmlns="http://www.w3.org/2000/svg" xmlns:xlink="http://www.w3.org/1999/xlink" xml:space="preserve" xmlns:serif="http://www.serif.com/" style="fill-rule:evenodd;clip-rule:evenodd;stroke-linejoin:round;stroke-miterlimit:2;">
    <g transform="matrix(1.93033,0,0,1.41005,-20.8768,-20.5477)">
        <rect x="10.815" y="14.572" width="124.331" height="102.124" style="fill:rgb(45,48,60);"/>
    </g>
    <g transform="matrix(0.690216,0,0,0.690216,120,72)">
        <g transform="matrix(1,0,0,1,-114.487,-56.2)">
            <g transform="matrix(1,0,0,1,174.031,99.32)">
                <g>
                    <path d="M-102.933,-51.5C-102.933,-49.287 -103.253,-46.93 -103.893,-44.43C-104.533,-41.937 -105.43,-39.463 -106.583,-37.01C-107.737,-34.557 -109.157,-32.21 -110.843,-29.97C-112.53,-27.73 -114.44,-25.767 -116.573,-24.08C-118.707,-22.393 -121.04,-21.04 -123.573,-20.02C-126.113,-18.993 -128.813,-18.48 -131.673,-18.48C-132.273,-18.48 -132.87,-18.513 -133.463,-18.58C-134.063,-18.64 -134.66,-18.713 -135.253,-18.8C-134.107,-24.687 -132.977,-30.427 -131.863,-36.02C-131.437,-38.367 -130.99,-40.807 -130.523,-43.34C-130.05,-45.88 -129.6,-48.387 -129.173,-50.86C-128.747,-53.34 -128.333,-55.71 -127.933,-57.97C-127.527,-60.23 -127.193,-62.277 -126.933,-64.11C-125.1,-64.45 -123.247,-64.77 -121.373,-65.07C-119.493,-65.37 -117.573,-65.52 -115.613,-65.52C-113.307,-65.52 -111.353,-65.157 -109.753,-64.43C-108.153,-63.703 -106.853,-62.7 -105.853,-61.42C-104.847,-60.14 -104.11,-58.647 -103.643,-56.94C-103.17,-55.233 -102.933,-53.42 -102.933,-51.5ZM-118.043,-56.5C-118.51,-53.98 -119,-51.567 -119.513,-49.26C-120.027,-46.96 -120.54,-44.637 -121.053,-42.29C-121.56,-39.943 -122.07,-37.49 -122.583,-34.93C-123.097,-32.37 -123.587,-29.573 -124.053,-26.54C-123.033,-27.227 -122.043,-28.157 -121.083,-29.33C-120.123,-30.503 -119.217,-31.857 -118.363,-33.39C-117.51,-34.93 -116.73,-36.553 -116.023,-38.26C-115.323,-39.967 -114.717,-41.63 -114.203,-43.25C-113.69,-44.87 -113.293,-46.383 -113.013,-47.79C-112.74,-49.197 -112.603,-50.413 -112.603,-51.44C-112.603,-53.02 -113.04,-54.257 -113.913,-55.15C-114.787,-56.05 -116.163,-56.5 -118.043,-56.5ZM-96.663,-21.42L-107.033,-18.74C-105.88,-24.413 -104.77,-29.96 -103.703,-35.38C-103.323,-37.68 -102.897,-40.08 -102.423,-42.58C-101.957,-45.073 -101.52,-47.547 -101.113,-50C-100.707,-52.453 -100.323,-54.82 -99.963,-57.1C-99.597,-59.387 -99.307,-61.467 -99.093,-63.34C-96.667,-64.113 -94.043,-64.68 -91.223,-65.04C-88.41,-65.4 -85.617,-65.58 -82.843,-65.58C-81.177,-65.58 -79.8,-65.39 -78.713,-65.01C-77.627,-64.623 -76.773,-64.08 -76.153,-63.38C-75.533,-62.673 -75.097,-61.85 -74.843,-60.91C-74.583,-59.97 -74.453,-58.927 -74.453,-57.78C-74.453,-56.073 -74.753,-54.397 -75.353,-52.75C-75.953,-51.11 -76.753,-49.553 -77.753,-48.08C-78.753,-46.607 -79.907,-45.263 -81.213,-44.05C-82.513,-42.83 -83.91,-41.837 -85.403,-41.07C-84.637,-39.363 -83.813,-37.497 -82.933,-35.47C-82.06,-33.443 -81.24,-31.513 -80.473,-29.68C-79.62,-27.547 -78.747,-25.413 -77.853,-23.28L-87.773,-19.82C-88.627,-22.767 -89.393,-25.54 -90.073,-28.14C-90.373,-29.207 -90.673,-30.307 -90.973,-31.44C-91.267,-32.573 -91.543,-33.64 -91.803,-34.64C-92.057,-35.64 -92.27,-36.527 -92.443,-37.3C-92.61,-38.067 -92.717,-38.663 -92.763,-39.09L-93.593,-38.83C-93.847,-37.463 -94.157,-35.8 -94.523,-33.84C-94.883,-31.88 -95.213,-29.98 -95.513,-28.14C-95.9,-25.967 -96.283,-23.727 -96.663,-21.42ZM-89.943,-56.69L-91.993,-46.51C-91.18,-46.597 -90.187,-46.94 -89.013,-47.54C-87.84,-48.133 -86.72,-48.847 -85.653,-49.68C-84.587,-50.513 -83.67,-51.377 -82.903,-52.27C-82.137,-53.17 -81.753,-53.96 -81.753,-54.64C-81.753,-55.107 -81.903,-55.48 -82.203,-55.76C-82.503,-56.04 -82.92,-56.253 -83.453,-56.4C-83.987,-56.547 -84.573,-56.643 -85.213,-56.69C-85.853,-56.73 -86.513,-56.75 -87.193,-56.75C-87.66,-56.75 -88.14,-56.74 -88.633,-56.72C-89.127,-56.7 -89.563,-56.69 -89.943,-56.69ZM-55.323,-20.08C-56.39,-19.907 -57.563,-19.713 -58.843,-19.5C-60.123,-19.287 -61.273,-19.097 -62.293,-18.93C-62.127,-20.337 -61.957,-21.723 -61.783,-23.09C-61.657,-24.283 -61.54,-25.477 -61.433,-26.67C-61.327,-27.863 -61.23,-28.887 -61.143,-29.74L-66.713,-29.74L-69.273,-20.53C-70.213,-20.403 -71.323,-20.263 -72.603,-20.11C-73.883,-19.963 -75.077,-19.827 -76.183,-19.7C-77.55,-19.527 -78.893,-19.353 -80.213,-19.18C-78.507,-24.86 -76.823,-30.45 -75.163,-35.95C-74.477,-38.257 -73.76,-40.667 -73.013,-43.18C-72.267,-45.7 -71.52,-48.207 -70.773,-50.7C-70.027,-53.2 -69.313,-55.6 -68.633,-57.9C-67.953,-60.207 -67.357,-62.32 -66.843,-64.24C-63.943,-64.453 -60.987,-64.71 -57.973,-65.01C-54.967,-65.31 -52.033,-65.713 -49.173,-66.22C-49.307,-64.86 -49.447,-63.167 -49.593,-61.14C-49.74,-59.113 -49.88,-56.903 -50.013,-54.51C-50.14,-52.123 -50.267,-49.627 -50.393,-47.02C-50.52,-44.42 -50.647,-41.86 -50.773,-39.34C-50.987,-33.453 -51.223,-27.203 -51.483,-20.59C-52.763,-20.377 -54.043,-20.207 -55.323,-20.08ZM-61.213,-52.21L-65.173,-36.14C-65.007,-36.14 -64.7,-36.153 -64.253,-36.18C-63.8,-36.2 -63.33,-36.22 -62.843,-36.24C-62.35,-36.26 -61.89,-36.28 -61.463,-36.3C-61.037,-36.327 -60.74,-36.36 -60.573,-36.4C-60.573,-36.653 -60.54,-37.09 -60.473,-37.71C-60.407,-38.33 -60.343,-39.033 -60.283,-39.82C-60.217,-40.613 -60.14,-41.48 -60.053,-42.42C-59.973,-43.353 -59.89,-44.27 -59.803,-45.17C-59.63,-47.343 -59.417,-49.69 -59.163,-52.21L-58.773,-57.78L-59.733,-57.71L-61.213,-52.21ZM-42.523,-19.89L-53.083,-19.18C-51.203,-24.86 -49.41,-30.43 -47.703,-35.89C-46.977,-38.19 -46.23,-40.6 -45.463,-43.12C-44.697,-45.64 -43.93,-48.137 -43.163,-50.61C-42.397,-53.083 -41.68,-55.473 -41.013,-57.78C-40.353,-60.08 -39.767,-62.213 -39.253,-64.18C-36.907,-64.18 -34.69,-64.307 -32.603,-64.56C-30.51,-64.813 -28.247,-65.047 -25.813,-65.26C-25.947,-64.327 -26.087,-63.273 -26.233,-62.1C-26.38,-60.927 -26.55,-59.7 -26.743,-58.42C-26.937,-57.14 -27.14,-55.817 -27.353,-54.45C-27.567,-53.083 -27.823,-51.333 -28.123,-49.2C-28.423,-47.067 -28.827,-44.4 -29.333,-41.2L-28.503,-41.2C-27.27,-44.44 -26.247,-47.14 -25.433,-49.3C-24.62,-51.453 -23.96,-53.213 -23.453,-54.58C-22.94,-55.94 -22.417,-57.273 -21.883,-58.58C-21.35,-59.88 -20.837,-61.117 -20.343,-62.29C-19.857,-63.463 -19.4,-64.497 -18.973,-65.39C-17.907,-65.477 -16.903,-65.583 -15.963,-65.71C-15.023,-65.837 -14.083,-65.977 -13.143,-66.13C-12.203,-66.277 -11.253,-66.427 -10.293,-66.58C-9.333,-66.727 -8.28,-66.907 -7.133,-67.12C-7.56,-64.647 -7.963,-62.107 -8.343,-59.5C-8.73,-56.9 -9.073,-54.31 -9.373,-51.73C-9.667,-49.15 -9.953,-46.6 -10.233,-44.08C-10.513,-41.56 -10.76,-39.17 -10.973,-36.91C-11.48,-31.623 -11.927,-26.46 -12.313,-21.42L-23.453,-19.44C-23.453,-19.653 -23.42,-20.23 -23.353,-21.17C-23.287,-22.11 -23.2,-23.26 -23.093,-24.62C-22.987,-25.987 -22.84,-27.503 -22.653,-29.17C-22.46,-30.83 -22.267,-32.493 -22.073,-34.16C-21.88,-35.827 -21.677,-37.437 -21.463,-38.99C-21.25,-40.55 -21.037,-41.883 -20.823,-42.99L-21.403,-42.99C-21.997,-41.197 -22.657,-39.31 -23.383,-37.33C-24.11,-35.343 -24.847,-33.327 -25.593,-31.28C-26.34,-29.233 -27.077,-27.227 -27.803,-25.26C-28.53,-23.3 -29.17,-21.423 -29.723,-19.63C-31.217,-19.59 -32.497,-19.537 -33.563,-19.47C-34.63,-19.41 -35.867,-19.337 -37.273,-19.25L-35.223,-42.99L-36.183,-42.99C-36.27,-42.437 -36.483,-41.51 -36.823,-40.21C-37.163,-38.91 -37.56,-37.417 -38.013,-35.73C-38.46,-34.043 -38.94,-32.293 -39.453,-30.48C-39.96,-28.667 -40.44,-26.98 -40.893,-25.42C-41.34,-23.867 -41.713,-22.587 -42.013,-21.58C-42.307,-20.58 -42.477,-20.017 -42.523,-19.89ZM12.007,-20.08C10.94,-19.907 9.767,-19.713 8.487,-19.5C7.207,-19.287 6.053,-19.097 5.027,-18.93C5.2,-20.337 5.373,-21.723 5.547,-23.09C5.673,-24.283 5.79,-25.477 5.897,-26.67C6.003,-27.863 6.1,-28.887 6.187,-29.74L0.617,-29.74L-1.943,-20.53C-2.883,-20.403 -3.993,-20.263 -5.273,-20.11C-6.553,-19.963 -7.747,-19.827 -8.853,-19.7C-10.22,-19.527 -11.567,-19.353 -12.893,-19.18C-11.187,-24.86 -9.5,-30.45 -7.833,-35.95C-7.153,-38.257 -6.44,-40.667 -5.693,-43.18C-4.947,-45.7 -4.2,-48.207 -3.453,-50.7C-2.707,-53.2 -1.99,-55.6 -1.303,-57.9C-0.623,-60.207 -0.027,-62.32 0.487,-64.24C3.387,-64.453 6.34,-64.71 9.347,-65.01C12.36,-65.31 15.293,-65.713 18.147,-66.22C18.02,-64.86 17.883,-63.167 17.737,-61.14C17.583,-59.113 17.443,-56.903 17.317,-54.51C17.19,-52.123 17.063,-49.627 16.937,-47.02C16.81,-44.42 16.68,-41.86 16.547,-39.34C16.333,-33.453 16.1,-27.203 15.847,-20.59C14.567,-20.377 13.287,-20.207 12.007,-20.08ZM6.117,-52.21L2.147,-36.14C2.32,-36.14 2.63,-36.153 3.077,-36.18C3.523,-36.2 3.993,-36.22 4.487,-36.24C4.98,-36.26 5.44,-36.28 5.867,-36.3C6.293,-36.327 6.59,-36.36 6.757,-36.4C6.757,-36.653 6.79,-37.09 6.857,-37.71C6.917,-38.33 6.98,-39.033 7.047,-39.82C7.113,-40.613 7.187,-41.48 7.267,-42.42C7.353,-43.353 7.44,-44.27 7.527,-45.17C7.7,-47.343 7.913,-49.69 8.167,-52.21L8.547,-57.78L7.587,-57.71L6.117,-52.21Z" style="fill:rgb(235,108,108);fill-rule:nonzero;"/>
                </g>
            </g>
        </g>
    </g>
</svg>
