<?xml version="1.0" encoding="UTF-8" standalone="no"?>
<!DOCTYPE svg PUBLIC "-//W3C//DTD SVG 1.1//EN" "http://www.w3.org/Graphics/SVG/1.1/DTD/svg11.dtd">
<svg width="100%" height="100%" viewBox="0 0 240 144" version="1.1" xmlns="http://www.w3.org/2000/svg" xmlns:xlink="http://www.w3.org/1999/xlink" xml:space="preserve" xmlns:serif="http://www.serif.com/" style="fill-rule:evenodd;clip-rule:evenodd;stroke-linejoin:round;stroke-miterlimit:2;">
    <g transform="matrix(1.93033,0,0,1.41005,-20.8768,-20.5477)">
        <rect x="10.815" y="14.572" width="124.331" height="102.124" style="fill:rgb(45,48,60);"/>
    </g>
    <g transform="matrix(0.774434,0,0,0.774434,120,72)">
        <g transform="matrix(1,0,0,1,-127.511,-61)">
            <g transform="matrix(1,0,0,1,164.066,100.173)">
                <g>
                    <path d="M-119.149,-59.88C-118.209,-59.793 -117.376,-59.76 -116.649,-59.78C-115.916,-59.8 -114.819,-59.79 -113.359,-59.75C-110.946,-59.623 -109.239,-59.79 -108.239,-60.25C-106.199,-61.29 -104.552,-61.417 -103.299,-60.63C-102.719,-60.297 -102.156,-60.087 -101.609,-60C-101.069,-59.92 -100.299,-60.17 -99.299,-60.75C-98.219,-61.21 -97.322,-61.313 -96.609,-61.06C-95.902,-60.813 -95.382,-60.503 -95.049,-60.13C-94.716,-59.75 -94.499,-59.093 -94.399,-58.16C-94.292,-57.22 -94.269,-56.293 -94.329,-55.38C-94.396,-54.46 -94.489,-53.603 -94.609,-52.81C-94.862,-50.69 -94.959,-49.297 -94.899,-48.63C-94.832,-47.963 -94.749,-47.273 -94.649,-46.56C-94.542,-45.853 -94.509,-45.167 -94.549,-44.5C-94.636,-42.873 -95.302,-41.957 -96.549,-41.75C-97.469,-41.623 -98.136,-41.843 -98.549,-42.41C-98.969,-42.97 -99.312,-43.593 -99.579,-44.28C-99.852,-44.967 -100.126,-45.583 -100.399,-46.13C-100.666,-46.67 -101.049,-46.867 -101.549,-46.72C-102.049,-46.573 -102.362,-46.03 -102.489,-45.09C-102.616,-44.157 -102.656,-43.053 -102.609,-41.78C-102.569,-40.513 -102.486,-39.2 -102.359,-37.84C-102.239,-36.487 -102.156,-35.343 -102.109,-34.41C-102.069,-33.47 -102.019,-32.52 -101.959,-31.56C-101.892,-30.607 -101.859,-29.713 -101.859,-28.88C-101.859,-27.087 -102.109,-25.857 -102.609,-25.19C-102.862,-24.857 -102.989,-24.46 -102.989,-24C-102.989,-23.54 -102.936,-23.06 -102.829,-22.56C-102.729,-22.06 -102.616,-21.56 -102.489,-21.06C-102.362,-20.56 -102.299,-19.957 -102.299,-19.25C-102.299,-17.583 -103.049,-16.417 -104.549,-15.75C-105.089,-15.503 -105.589,-15.087 -106.049,-14.5C-106.509,-13.913 -106.852,-13.527 -107.079,-13.34C-107.312,-13.153 -107.586,-13.093 -107.899,-13.16C-108.206,-13.22 -108.432,-13.363 -108.579,-13.59C-108.726,-13.823 -108.862,-14.063 -108.989,-14.31C-109.236,-14.977 -109.589,-15.417 -110.049,-15.63C-110.589,-15.75 -110.912,-16.207 -111.019,-17C-111.126,-17.793 -111.189,-18.49 -111.209,-19.09C-111.229,-19.697 -111.279,-20.437 -111.359,-21.31C-111.446,-22.19 -111.719,-22.9 -112.179,-23.44C-112.632,-23.98 -113.006,-24.323 -113.299,-24.47C-113.592,-24.617 -113.779,-24.97 -113.859,-25.53C-113.946,-26.097 -113.936,-26.67 -113.829,-27.25C-113.729,-27.837 -113.596,-28.483 -113.429,-29.19C-112.929,-31.23 -112.656,-33.147 -112.609,-34.94C-112.489,-38.273 -112.489,-40.48 -112.609,-41.56C-112.776,-43.727 -113.359,-44.81 -114.359,-44.81C-114.859,-44.77 -115.216,-44.553 -115.429,-44.16C-115.636,-43.76 -115.862,-43.29 -116.109,-42.75C-116.696,-41.377 -117.759,-41.003 -119.299,-41.63C-119.839,-41.877 -120.182,-42.27 -120.329,-42.81C-120.476,-43.357 -120.559,-43.993 -120.579,-44.72C-120.599,-45.447 -120.622,-46.217 -120.649,-47.03C-120.669,-47.843 -120.812,-48.613 -121.079,-49.34C-121.352,-50.073 -121.612,-50.773 -121.859,-51.44C-122.112,-52.107 -122.219,-52.773 -122.179,-53.44C-122.132,-54.107 -121.976,-54.753 -121.709,-55.38C-121.436,-56 -121.352,-56.623 -121.459,-57.25C-121.559,-57.877 -121.432,-58.49 -121.079,-59.09C-120.726,-59.697 -120.082,-59.96 -119.149,-59.88ZM-90.549,-25.75L-90.609,-28.94C-90.609,-29.52 -90.589,-30.06 -90.549,-30.56C-90.509,-31.107 -90.552,-31.773 -90.679,-32.56C-90.886,-33.94 -90.979,-34.95 -90.959,-35.59C-90.939,-36.237 -90.939,-36.76 -90.959,-37.16C-90.979,-37.553 -91.029,-37.917 -91.109,-38.25C-91.236,-38.75 -91.539,-39.543 -92.019,-40.63C-92.499,-41.71 -92.739,-42.877 -92.739,-44.13C-92.739,-45.377 -92.469,-46.377 -91.929,-47.13C-91.429,-47.877 -91.239,-48.647 -91.359,-49.44C-91.486,-50.233 -91.582,-51.077 -91.649,-51.97C-91.709,-52.863 -91.719,-53.78 -91.679,-54.72C-91.632,-55.66 -91.422,-56.567 -91.049,-57.44C-90.136,-59.567 -88.302,-60.587 -85.549,-60.5C-83.842,-60.46 -82.362,-60.293 -81.109,-60C-79.862,-59.707 -78.946,-59.583 -78.359,-59.63C-77.779,-59.67 -76.886,-59.877 -75.679,-60.25C-73.926,-60.917 -72.529,-60.877 -71.489,-60.13C-71.196,-59.917 -70.916,-59.76 -70.649,-59.66C-70.376,-59.553 -70.136,-59.397 -69.929,-59.19C-69.216,-58.397 -69.006,-56.667 -69.299,-54C-69.386,-53.207 -69.469,-52.417 -69.549,-51.63C-69.756,-49.75 -69.756,-48.353 -69.549,-47.44C-69.342,-46.52 -69.229,-45.717 -69.209,-45.03C-69.189,-44.343 -69.219,-43.73 -69.299,-43.19C-69.552,-41.983 -70.032,-41.38 -70.739,-41.38C-71.366,-41.42 -71.812,-41.617 -72.079,-41.97C-72.352,-42.323 -72.572,-42.72 -72.739,-43.16C-72.906,-43.593 -73.082,-43.987 -73.269,-44.34C-73.456,-44.7 -73.862,-44.88 -74.489,-44.88C-76.322,-44.88 -77.542,-45.077 -78.149,-45.47C-78.749,-45.863 -79.279,-46.093 -79.739,-46.16C-80.199,-46.22 -80.636,-46.167 -81.049,-46C-81.922,-45.627 -82.432,-44.94 -82.579,-43.94C-82.726,-42.94 -82.819,-42.063 -82.859,-41.31C-82.906,-40.563 -82.906,-39.877 -82.859,-39.25C-82.779,-37.79 -82.499,-36.967 -82.019,-36.78C-81.539,-36.593 -81.132,-36.573 -80.799,-36.72C-80.466,-36.867 -80.132,-37.043 -79.799,-37.25C-78.799,-37.917 -77.769,-38.24 -76.709,-38.22C-75.642,-38.2 -74.849,-37.773 -74.329,-36.94C-73.809,-36.107 -73.592,-35.303 -73.679,-34.53C-73.759,-33.763 -73.832,-33.003 -73.899,-32.25C-73.959,-31.503 -74.052,-30.797 -74.179,-30.13C-74.759,-27.543 -75.966,-27.043 -77.799,-28.63C-80.172,-28.797 -81.652,-28.503 -82.239,-27.75C-82.366,-27.543 -82.489,-27.107 -82.609,-26.44C-82.736,-25.773 -82.759,-25.063 -82.679,-24.31C-82.466,-22.357 -81.526,-21.317 -79.859,-21.19C-78.779,-21.103 -77.792,-21.25 -76.899,-21.63C-75.999,-22.003 -75.402,-22.42 -75.109,-22.88C-74.862,-23.38 -74.552,-23.66 -74.179,-23.72C-73.799,-23.78 -73.466,-23.843 -73.179,-23.91C-72.886,-23.97 -72.592,-24 -72.299,-24C-72.006,-24 -71.716,-23.96 -71.429,-23.88C-70.676,-23.627 -70.226,-23.043 -70.079,-22.13C-69.932,-21.21 -70.026,-20.377 -70.359,-19.63C-70.692,-18.877 -70.912,-18.197 -71.019,-17.59C-71.126,-16.99 -71.219,-16.543 -71.299,-16.25C-71.386,-15.957 -71.626,-15.593 -72.019,-15.16C-72.412,-14.72 -72.726,-14.353 -72.959,-14.06C-73.186,-13.767 -73.549,-13.83 -74.049,-14.25C-74.969,-14.957 -76.072,-14.54 -77.359,-13C-77.692,-12.54 -78.049,-12.207 -78.429,-12C-78.802,-11.793 -79.386,-11.71 -80.179,-11.75C-80.966,-11.79 -81.589,-11.997 -82.049,-12.37C-82.509,-12.75 -82.926,-13.127 -83.299,-13.5C-83.926,-14.293 -85.009,-14.587 -86.549,-14.38C-87.469,-14.253 -88.219,-14.647 -88.799,-15.56C-88.926,-15.687 -89.019,-15.917 -89.079,-16.25C-89.146,-16.583 -89.219,-16.96 -89.299,-17.38C-89.592,-18.46 -89.852,-19.157 -90.079,-19.47C-90.312,-19.783 -90.439,-20.19 -90.459,-20.69C-90.479,-21.19 -90.529,-21.72 -90.609,-22.28C-90.696,-22.847 -90.759,-23.263 -90.799,-23.53C-90.839,-23.803 -90.809,-24.127 -90.709,-24.5C-90.602,-24.873 -90.549,-25.29 -90.549,-25.75ZM-49.609,-58.94L-47.609,-59.06C-46.196,-59.06 -45.186,-58.833 -44.579,-58.38C-43.979,-57.92 -43.522,-57.503 -43.209,-57.13C-42.896,-56.75 -42.612,-56.363 -42.359,-55.97C-42.112,-55.577 -41.769,-55.17 -41.329,-54.75C-40.896,-54.337 -40.679,-53.847 -40.679,-53.28C-40.679,-52.72 -40.522,-52.273 -40.209,-51.94C-39.896,-51.607 -39.739,-51.063 -39.739,-50.31C-39.739,-49.563 -39.749,-48.847 -39.769,-48.16C-39.789,-47.473 -39.862,-46.91 -39.989,-46.47C-40.116,-46.03 -40.179,-45.593 -40.179,-45.16C-40.179,-44.72 -40.086,-44.323 -39.899,-43.97C-39.706,-43.617 -39.682,-42.763 -39.829,-41.41C-39.976,-40.057 -40.206,-38.69 -40.519,-37.31C-40.832,-35.937 -41.239,-34.75 -41.739,-33.75C-42.739,-31.877 -44.362,-30.397 -46.609,-29.31C-46.402,-28.81 -46.166,-28.26 -45.899,-27.66C-45.626,-27.053 -45.362,-26.437 -45.109,-25.81C-44.569,-24.27 -44.299,-23.157 -44.299,-22.47C-44.299,-21.783 -44.269,-21.283 -44.209,-20.97C-44.142,-20.657 -44.069,-20.417 -43.989,-20.25C-43.902,-20.083 -43.789,-19.96 -43.649,-19.88C-43.502,-19.793 -43.282,-19.637 -42.989,-19.41C-42.696,-19.177 -42.466,-18.79 -42.299,-18.25C-42.132,-17.71 -42.049,-17.147 -42.049,-16.56C-42.049,-15.227 -42.206,-14.403 -42.519,-14.09C-42.832,-13.777 -43.166,-13.57 -43.519,-13.47C-43.872,-13.363 -44.236,-13.29 -44.609,-13.25C-45.569,-13.123 -46.176,-13.247 -46.429,-13.62C-46.762,-13.96 -46.939,-14.307 -46.959,-14.66C-46.979,-15.013 -47.052,-15.323 -47.179,-15.59C-47.299,-15.863 -47.486,-16.03 -47.739,-16.09C-47.986,-16.157 -48.162,-16.42 -48.269,-16.88C-48.376,-17.333 -48.522,-17.633 -48.709,-17.78C-48.896,-17.927 -49.279,-17.96 -49.859,-17.88C-50.906,-17.667 -51.679,-18.29 -52.179,-19.75C-52.299,-20.083 -52.422,-20.52 -52.549,-21.06C-52.676,-21.607 -52.822,-22.13 -52.989,-22.63C-53.322,-23.837 -53.709,-24.49 -54.149,-24.59C-54.582,-24.697 -54.902,-24.647 -55.109,-24.44C-55.322,-24.233 -55.479,-23.95 -55.579,-23.59C-55.686,-23.237 -55.739,-22.843 -55.739,-22.41C-55.739,-21.97 -55.686,-21.5 -55.579,-21C-55.479,-20.5 -55.469,-20.083 -55.549,-19.75C-55.636,-19.417 -55.752,-19.147 -55.899,-18.94C-56.039,-18.733 -56.192,-18.547 -56.359,-18.38C-56.692,-18.167 -56.892,-17.75 -56.959,-17.13C-57.019,-16.503 -57.112,-15.96 -57.239,-15.5C-57.486,-14.373 -57.819,-13.663 -58.239,-13.37C-58.652,-13.083 -59.069,-12.907 -59.489,-12.84C-59.902,-12.78 -60.319,-12.79 -60.739,-12.87C-61.779,-13.083 -62.426,-13.45 -62.679,-13.97C-62.926,-14.49 -63.069,-14.887 -63.109,-15.16C-63.156,-15.427 -63.169,-15.687 -63.149,-15.94C-63.122,-16.187 -63.089,-16.457 -63.049,-16.75C-63.009,-17.043 -62.999,-17.387 -63.019,-17.78C-63.039,-18.18 -63.132,-18.713 -63.299,-19.38C-63.466,-20.047 -63.569,-20.837 -63.609,-21.75L-63.679,-23.38C-63.679,-23.547 -63.532,-23.827 -63.239,-24.22C-62.946,-24.613 -62.852,-25.07 -62.959,-25.59C-63.059,-26.117 -63.299,-26.45 -63.679,-26.59C-64.052,-26.737 -64.239,-26.917 -64.239,-27.13C-64.239,-27.337 -64.196,-27.857 -64.109,-28.69C-64.029,-29.523 -64.062,-30.563 -64.209,-31.81C-64.356,-33.063 -64.449,-34.17 -64.489,-35.13C-64.656,-37.21 -65.019,-38.387 -65.579,-38.66C-66.146,-38.927 -66.469,-39.26 -66.549,-39.66C-66.636,-40.053 -66.636,-40.5 -66.549,-41C-66.469,-41.5 -66.376,-42.127 -66.269,-42.88C-66.162,-43.627 -66.049,-44.387 -65.929,-45.16C-65.802,-45.927 -65.686,-46.643 -65.579,-47.31C-65.479,-47.977 -65.406,-48.437 -65.359,-48.69C-65.319,-48.937 -65.309,-49.177 -65.329,-49.41C-65.349,-49.637 -65.359,-49.853 -65.359,-50.06C-65.446,-50.727 -65.446,-51.31 -65.359,-51.81C-65.192,-52.77 -65.152,-53.447 -65.239,-53.84C-65.319,-54.24 -65.246,-54.847 -65.019,-55.66C-64.792,-56.473 -64.596,-57.047 -64.429,-57.38C-64.262,-57.713 -63.949,-57.963 -63.489,-58.13C-63.029,-58.297 -62.582,-58.533 -62.149,-58.84C-61.709,-59.153 -61.302,-59.467 -60.929,-59.78C-60.549,-60.093 -60.216,-60.387 -59.929,-60.66C-59.636,-60.927 -59.279,-61.123 -58.859,-61.25C-57.652,-61.503 -56.769,-61.533 -56.209,-61.34C-55.642,-61.153 -55.236,-60.957 -54.989,-60.75C-54.736,-60.543 -54.432,-60.337 -54.079,-60.13C-53.726,-59.917 -53.352,-59.76 -52.959,-59.66C-52.559,-59.553 -52.192,-59.5 -51.859,-59.5C-50.986,-59.42 -50.456,-59.307 -50.269,-59.16C-50.082,-59.013 -49.862,-58.94 -49.609,-58.94ZM-54.799,-41.5L-54.429,-35.81C-54.429,-35.437 -54.449,-35.073 -54.489,-34.72C-54.529,-34.367 -54.569,-34.043 -54.609,-33.75C-54.656,-33.123 -54.429,-32.75 -53.929,-32.63C-53.509,-32.543 -53.176,-32.657 -52.929,-32.97C-52.676,-33.283 -52.446,-33.71 -52.239,-34.25C-51.739,-35.29 -51.572,-35.957 -51.739,-36.25C-52.072,-36.67 -52.166,-37.033 -52.019,-37.34C-51.872,-37.653 -51.559,-38.27 -51.079,-39.19C-50.599,-40.103 -50.246,-40.893 -50.019,-41.56C-49.792,-42.227 -49.739,-42.947 -49.859,-43.72C-49.986,-44.493 -50.049,-45.023 -50.049,-45.31L-50.049,-46C-50.049,-46.333 -50.206,-46.637 -50.519,-46.91C-50.832,-47.177 -51.052,-47.32 -51.179,-47.34C-51.299,-47.367 -51.402,-47.38 -51.489,-47.38C-51.862,-47.293 -52.216,-47.323 -52.549,-47.47C-52.882,-47.617 -53.196,-47.68 -53.489,-47.66C-53.782,-47.64 -54.116,-47.44 -54.489,-47.06C-54.862,-46.687 -55.069,-46.303 -55.109,-45.91C-55.156,-45.51 -55.156,-45.06 -55.109,-44.56C-54.902,-43.06 -54.799,-42.04 -54.799,-41.5ZM-20.239,-58.94L-18.239,-59.06C-16.819,-59.06 -15.809,-58.833 -15.209,-58.38C-14.602,-57.92 -14.142,-57.503 -13.829,-57.13C-13.516,-56.75 -13.236,-56.363 -12.989,-55.97C-12.736,-55.577 -12.392,-55.17 -11.959,-54.75C-11.519,-54.337 -11.299,-53.847 -11.299,-53.28C-11.299,-52.72 -11.142,-52.273 -10.829,-51.94C-10.516,-51.607 -10.359,-51.063 -10.359,-50.31C-10.359,-49.563 -10.372,-48.847 -10.399,-48.16C-10.419,-47.473 -10.489,-46.91 -10.609,-46.47C-10.736,-46.03 -10.799,-45.593 -10.799,-45.16C-10.799,-44.72 -10.706,-44.323 -10.519,-43.97C-10.332,-43.617 -10.312,-42.763 -10.459,-41.41C-10.606,-40.057 -10.836,-38.69 -11.149,-37.31C-11.456,-35.937 -11.859,-34.75 -12.359,-33.75C-13.359,-31.877 -14.986,-30.397 -17.239,-29.31C-17.032,-28.81 -16.792,-28.26 -16.519,-27.66C-16.246,-27.053 -15.986,-26.437 -15.739,-25.81C-15.199,-24.27 -14.929,-23.157 -14.929,-22.47C-14.929,-21.783 -14.896,-21.283 -14.829,-20.97C-14.769,-20.657 -14.696,-20.417 -14.609,-20.25C-14.529,-20.083 -14.416,-19.96 -14.269,-19.88C-14.122,-19.793 -13.902,-19.637 -13.609,-19.41C-13.322,-19.177 -13.096,-18.79 -12.929,-18.25C-12.762,-17.71 -12.679,-17.147 -12.679,-16.56C-12.679,-15.227 -12.836,-14.403 -13.149,-14.09C-13.456,-13.777 -13.789,-13.57 -14.149,-13.47C-14.502,-13.363 -14.866,-13.29 -15.239,-13.25C-16.199,-13.123 -16.802,-13.247 -17.049,-13.62C-17.382,-13.96 -17.559,-14.307 -17.579,-14.66C-17.599,-15.013 -17.672,-15.323 -17.799,-15.59C-17.926,-15.863 -18.112,-16.03 -18.359,-16.09C-18.612,-16.157 -18.792,-16.42 -18.899,-16.88C-18.999,-17.333 -19.142,-17.633 -19.329,-17.78C-19.516,-17.927 -19.902,-17.96 -20.489,-17.88C-21.529,-17.667 -22.299,-18.29 -22.799,-19.75C-22.926,-20.083 -23.052,-20.52 -23.179,-21.06C-23.299,-21.607 -23.442,-22.13 -23.609,-22.63C-23.942,-23.837 -24.329,-24.49 -24.769,-24.59C-25.209,-24.697 -25.532,-24.647 -25.739,-24.44C-25.946,-24.233 -26.102,-23.95 -26.209,-23.59C-26.309,-23.237 -26.359,-22.843 -26.359,-22.41C-26.359,-21.97 -26.309,-21.5 -26.209,-21C-26.102,-20.5 -26.092,-20.083 -26.179,-19.75C-26.259,-19.417 -26.372,-19.147 -26.519,-18.94C-26.666,-18.733 -26.822,-18.547 -26.989,-18.38C-27.322,-18.167 -27.519,-17.75 -27.579,-17.13C-27.646,-16.503 -27.739,-15.96 -27.859,-15.5C-28.112,-14.373 -28.446,-13.663 -28.859,-13.37C-29.279,-13.083 -29.696,-12.907 -30.109,-12.84C-30.529,-12.78 -30.946,-12.79 -31.359,-12.87C-32.406,-13.083 -33.052,-13.45 -33.299,-13.97C-33.552,-14.49 -33.699,-14.887 -33.739,-15.16C-33.779,-15.427 -33.789,-15.687 -33.769,-15.94C-33.749,-16.187 -33.719,-16.457 -33.679,-16.75C-33.632,-17.043 -33.622,-17.387 -33.649,-17.78C-33.669,-18.18 -33.762,-18.713 -33.929,-19.38C-34.096,-20.047 -34.199,-20.837 -34.239,-21.75L-34.299,-23.38C-34.299,-23.547 -34.152,-23.827 -33.859,-24.22C-33.572,-24.613 -33.479,-25.07 -33.579,-25.59C-33.686,-26.117 -33.926,-26.45 -34.299,-26.59C-34.672,-26.737 -34.859,-26.917 -34.859,-27.13C-34.859,-27.337 -34.819,-27.857 -34.739,-28.69C-34.652,-29.523 -34.682,-30.563 -34.829,-31.81C-34.976,-33.063 -35.069,-34.17 -35.109,-35.13C-35.276,-37.21 -35.642,-38.387 -36.209,-38.66C-36.769,-38.927 -37.092,-39.26 -37.179,-39.66C-37.259,-40.053 -37.259,-40.5 -37.179,-41C-37.092,-41.5 -36.999,-42.127 -36.899,-42.88C-36.792,-43.627 -36.676,-44.387 -36.549,-45.16C-36.422,-45.927 -36.309,-46.643 -36.209,-47.31C-36.102,-47.977 -36.029,-48.437 -35.989,-48.69C-35.949,-48.937 -35.939,-49.177 -35.959,-49.41C-35.979,-49.637 -35.989,-49.853 -35.989,-50.06C-36.069,-50.727 -36.069,-51.31 -35.989,-51.81C-35.822,-52.77 -35.779,-53.447 -35.859,-53.84C-35.946,-54.24 -35.876,-54.847 -35.649,-55.66C-35.416,-56.473 -35.216,-57.047 -35.049,-57.38C-34.882,-57.713 -34.569,-57.963 -34.109,-58.13C-33.656,-58.297 -33.209,-58.533 -32.769,-58.84C-32.329,-59.153 -31.922,-59.467 -31.549,-59.78C-31.176,-60.093 -30.842,-60.387 -30.549,-60.66C-30.256,-60.927 -29.902,-61.123 -29.489,-61.25C-28.282,-61.503 -27.396,-61.533 -26.829,-61.34C-26.269,-61.153 -25.862,-60.957 -25.609,-60.75C-25.362,-60.543 -25.062,-60.337 -24.709,-60.13C-24.356,-59.917 -23.979,-59.76 -23.579,-59.66C-23.186,-59.553 -22.822,-59.5 -22.489,-59.5C-21.616,-59.42 -21.086,-59.307 -20.899,-59.16C-20.706,-59.013 -20.486,-58.94 -20.239,-58.94ZM-25.429,-41.5L-25.049,-35.81C-25.049,-35.437 -25.069,-35.073 -25.109,-34.72C-25.156,-34.367 -25.199,-34.043 -25.239,-33.75C-25.279,-33.123 -25.049,-32.75 -24.549,-32.63C-24.136,-32.543 -23.802,-32.657 -23.549,-32.97C-23.302,-33.283 -23.072,-33.71 -22.859,-34.25C-22.359,-35.29 -22.192,-35.957 -22.359,-36.25C-22.692,-36.67 -22.789,-37.033 -22.649,-37.34C-22.502,-37.653 -22.189,-38.27 -21.709,-39.19C-21.229,-40.103 -20.876,-40.893 -20.649,-41.56C-20.416,-42.227 -20.362,-42.947 -20.489,-43.72C-20.616,-44.493 -20.679,-45.023 -20.679,-45.31L-20.679,-46C-20.679,-46.333 -20.836,-46.637 -21.149,-46.91C-21.456,-47.177 -21.672,-47.32 -21.799,-47.34C-21.926,-47.367 -22.029,-47.38 -22.109,-47.38C-22.489,-47.293 -22.846,-47.323 -23.179,-47.47C-23.512,-47.617 -23.822,-47.68 -24.109,-47.66C-24.402,-47.64 -24.736,-47.44 -25.109,-47.06C-25.489,-46.687 -25.699,-46.303 -25.739,-45.91C-25.779,-45.51 -25.779,-45.06 -25.739,-44.56C-25.532,-43.06 -25.429,-42.04 -25.429,-41.5ZM-1.609,-57.13C-1.156,-57.543 -0.762,-57.99 -0.429,-58.47C-0.096,-58.95 0.344,-59.397 0.891,-59.81C2.344,-61.023 3.801,-61.38 5.261,-60.88C7.054,-60.213 8.701,-59.797 10.201,-59.63C11.701,-59.463 12.794,-59.087 13.481,-58.5C14.168,-57.92 14.761,-57.297 15.261,-56.63C16.468,-55.043 17.198,-53.313 17.451,-51.44C17.491,-50.733 17.614,-50.233 17.821,-49.94C18.368,-49.02 18.544,-47.79 18.351,-46.25C18.164,-44.71 18.104,-43.637 18.171,-43.03C18.231,-42.43 18.334,-41.983 18.481,-41.69C18.628,-41.397 18.764,-41.103 18.891,-40.81C19.224,-40.023 19.391,-39.233 19.391,-38.44C19.391,-37.44 19.058,-36.44 18.391,-35.44C18.098,-35.067 17.991,-34.337 18.071,-33.25C18.158,-32.17 18.221,-31.087 18.261,-30C18.301,-27.293 18.154,-25.617 17.821,-24.97C17.488,-24.323 17.248,-23.937 17.101,-23.81C16.961,-23.69 16.828,-23.587 16.701,-23.5C16.074,-23.207 15.521,-22.343 15.041,-20.91C14.561,-19.47 13.928,-18.303 13.141,-17.41C12.348,-16.51 11.524,-15.78 10.671,-15.22C9.818,-14.66 9.151,-14.223 8.671,-13.91C8.191,-13.597 7.848,-13.293 7.641,-13C7.428,-12.707 7.218,-12.413 7.011,-12.12C6.471,-11.453 5.784,-11.12 4.951,-11.12C3.531,-11.12 2.488,-11.453 1.821,-12.12C1.534,-12.5 1.224,-13.043 0.891,-13.75C0.264,-14.877 -0.569,-15.793 -1.609,-16.5C-2.776,-17.293 -3.486,-18.48 -3.739,-20.06C-3.866,-20.607 -3.896,-21.15 -3.829,-21.69C-3.769,-22.23 -3.802,-22.917 -3.929,-23.75C-4.009,-24.583 -4.176,-25.333 -4.429,-26C-4.676,-26.667 -4.819,-27.293 -4.859,-27.88C-5.072,-29.627 -5.656,-30.563 -6.609,-30.69C-7.322,-30.77 -7.739,-31.833 -7.859,-33.88C-7.906,-34.92 -7.866,-35.907 -7.739,-36.84C-7.612,-37.78 -7.446,-38.583 -7.239,-39.25C-6.906,-40.457 -6.802,-41.863 -6.929,-43.47C-7.049,-45.077 -7.049,-46.503 -6.929,-47.75C-6.716,-50.083 -6.216,-51.98 -5.429,-53.44C-5.049,-54.067 -4.496,-54.69 -3.769,-55.31C-3.042,-55.937 -2.322,-56.543 -1.609,-57.13ZM2.351,-39.25C2.458,-38.67 2.668,-38.2 2.981,-37.84C3.294,-37.487 3.524,-36.937 3.671,-36.19C3.818,-35.437 3.868,-34.613 3.821,-33.72C3.781,-32.827 3.761,-31.973 3.761,-31.16C3.761,-30.347 3.804,-29.617 3.891,-28.97C3.971,-28.323 4.094,-27.73 4.261,-27.19C4.721,-25.897 5.368,-25.25 6.201,-25.25C7.494,-25.25 8.391,-27.75 8.891,-32.75C9.058,-34.123 9.141,-35.883 9.141,-38.03C9.141,-40.177 8.808,-42.03 8.141,-43.59C7.474,-45.157 6.661,-45.94 5.701,-45.94C4.781,-45.94 3.948,-44.92 3.201,-42.88C2.534,-41.047 2.251,-39.837 2.351,-39.25ZM39.201,-58.94L41.201,-59.06C42.614,-59.06 43.624,-58.833 44.231,-58.38C44.838,-57.92 45.294,-57.503 45.601,-57.13C45.914,-56.75 46.198,-56.363 46.451,-55.97C46.698,-55.577 47.041,-55.17 47.481,-54.75C47.921,-54.337 48.141,-53.847 48.141,-53.28C48.141,-52.72 48.294,-52.273 48.601,-51.94C48.914,-51.607 49.071,-51.063 49.071,-50.31C49.071,-49.563 49.061,-48.847 49.041,-48.16C49.021,-47.473 48.948,-46.91 48.821,-46.47C48.701,-46.03 48.641,-45.593 48.641,-45.16C48.641,-44.72 48.734,-44.323 48.921,-43.97C49.108,-43.617 49.128,-42.763 48.981,-41.41C48.834,-40.057 48.604,-38.69 48.291,-37.31C47.978,-35.937 47.571,-34.75 47.071,-33.75C46.071,-31.877 44.448,-30.397 42.201,-29.31C42.408,-28.81 42.648,-28.26 42.921,-27.66C43.188,-27.053 43.448,-26.437 43.701,-25.81C44.241,-24.27 44.511,-23.157 44.511,-22.47C44.511,-21.783 44.541,-21.283 44.601,-20.97C44.668,-20.657 44.741,-20.417 44.821,-20.25C44.908,-20.083 45.024,-19.96 45.171,-19.88C45.318,-19.793 45.534,-19.637 45.821,-19.41C46.114,-19.177 46.344,-18.79 46.511,-18.25C46.678,-17.71 46.761,-17.147 46.761,-16.56C46.761,-15.227 46.604,-14.403 46.291,-14.09C45.978,-13.777 45.644,-13.57 45.291,-13.47C44.938,-13.363 44.574,-13.29 44.201,-13.25C43.241,-13.123 42.638,-13.247 42.391,-13.62C42.058,-13.96 41.878,-14.307 41.851,-14.66C41.831,-15.013 41.761,-15.323 41.641,-15.59C41.514,-15.863 41.324,-16.03 41.071,-16.09C40.824,-16.157 40.648,-16.42 40.541,-16.88C40.441,-17.333 40.294,-17.633 40.101,-17.78C39.914,-17.927 39.531,-17.96 38.951,-17.88C37.911,-17.667 37.141,-18.29 36.641,-19.75C36.514,-20.083 36.388,-20.52 36.261,-21.06C36.134,-21.607 35.988,-22.13 35.821,-22.63C35.488,-23.837 35.104,-24.49 34.671,-24.59C34.231,-24.697 33.908,-24.647 33.701,-24.44C33.494,-24.233 33.338,-23.95 33.231,-23.59C33.124,-23.237 33.071,-22.843 33.071,-22.41C33.071,-21.97 33.124,-21.5 33.231,-21C33.338,-20.5 33.348,-20.083 33.261,-19.75C33.181,-19.417 33.068,-19.147 32.921,-18.94C32.774,-18.733 32.618,-18.547 32.451,-18.38C32.118,-18.167 31.918,-17.75 31.851,-17.13C31.791,-16.503 31.698,-15.96 31.571,-15.5C31.324,-14.373 30.991,-13.663 30.571,-13.37C30.158,-13.083 29.741,-12.907 29.321,-12.84C28.908,-12.78 28.491,-12.79 28.071,-12.87C27.031,-13.083 26.388,-13.45 26.141,-13.97C25.888,-14.49 25.741,-14.887 25.701,-15.16C25.661,-15.427 25.651,-15.687 25.671,-15.94C25.691,-16.187 25.721,-16.457 25.761,-16.75C25.801,-17.043 25.811,-17.387 25.791,-17.78C25.771,-18.18 25.678,-18.713 25.511,-19.38C25.344,-20.047 25.241,-20.837 25.201,-21.75L25.141,-23.38C25.141,-23.547 25.284,-23.827 25.571,-24.22C25.864,-24.613 25.958,-25.07 25.851,-25.59C25.751,-26.117 25.514,-26.45 25.141,-26.59C24.761,-26.737 24.571,-26.917 24.571,-27.13C24.571,-27.337 24.614,-27.857 24.701,-28.69C24.781,-29.523 24.748,-30.563 24.601,-31.81C24.461,-33.063 24.368,-34.17 24.321,-35.13C24.154,-37.21 23.791,-38.387 23.231,-38.66C22.671,-38.927 22.348,-39.26 22.261,-39.66C22.181,-40.053 22.181,-40.5 22.261,-41C22.348,-41.5 22.441,-42.127 22.541,-42.88C22.648,-43.627 22.764,-44.387 22.891,-45.16C23.011,-45.927 23.124,-46.643 23.231,-47.31C23.338,-47.977 23.411,-48.437 23.451,-48.69C23.491,-48.937 23.501,-49.177 23.481,-49.41C23.461,-49.637 23.451,-49.853 23.451,-50.06C23.364,-50.727 23.364,-51.31 23.451,-51.81C23.618,-52.77 23.658,-53.447 23.571,-53.84C23.491,-54.24 23.564,-54.847 23.791,-55.66C24.024,-56.473 24.224,-57.047 24.391,-57.38C24.558,-57.713 24.868,-57.963 25.321,-58.13C25.781,-58.297 26.231,-58.533 26.671,-58.84C27.104,-59.153 27.511,-59.467 27.891,-59.78C28.264,-60.093 28.598,-60.387 28.891,-60.66C29.178,-60.927 29.531,-61.123 29.951,-61.25C31.158,-61.503 32.041,-61.533 32.601,-61.34C33.168,-61.153 33.574,-60.957 33.821,-60.75C34.074,-60.543 34.378,-60.337 34.731,-60.13C35.084,-59.917 35.458,-59.76 35.851,-59.66C36.251,-59.553 36.618,-59.5 36.951,-59.5C37.824,-59.42 38.354,-59.307 38.541,-59.16C38.728,-59.013 38.948,-58.94 39.201,-58.94ZM34.011,-41.5L34.391,-35.81C34.391,-35.437 34.368,-35.073 34.321,-34.72C34.281,-34.367 34.241,-34.043 34.201,-33.75C34.161,-33.123 34.391,-32.75 34.891,-32.63C35.304,-32.543 35.638,-32.657 35.891,-32.97C36.138,-33.283 36.364,-33.71 36.571,-34.25C37.071,-35.29 37.238,-35.957 37.071,-36.25C36.738,-36.67 36.644,-37.033 36.791,-37.34C36.938,-37.653 37.251,-38.27 37.731,-39.19C38.211,-40.103 38.564,-40.893 38.791,-41.56C39.024,-42.227 39.078,-42.947 38.951,-43.72C38.824,-44.493 38.761,-45.023 38.761,-45.31L38.761,-46C38.761,-46.333 38.604,-46.637 38.291,-46.91C37.978,-47.177 37.761,-47.32 37.641,-47.34C37.514,-47.367 37.408,-47.38 37.321,-47.38C36.948,-47.293 36.594,-47.323 36.261,-47.47C35.928,-47.617 35.614,-47.68 35.321,-47.66C35.034,-47.64 34.701,-47.44 34.321,-47.06C33.948,-46.687 33.741,-46.303 33.701,-45.91C33.661,-45.51 33.661,-45.06 33.701,-44.56C33.908,-43.06 34.011,-42.04 34.011,-41.5Z" style="fill:rgb(182,47,47);fill-rule:nonzero;"/>
                </g>
            </g>
        </g>
    </g>
</svg>
